<?xml version="1.0" encoding="UTF-8" standalone="no"?>
<svg
   xmlns:dc="http://purl.org/dc/elements/1.1/"
   xmlns:cc="http://creativecommons.org/ns#"
   xmlns:rdf="http://www.w3.org/1999/02/22-rdf-syntax-ns#"
   xmlns:svg="http://www.w3.org/2000/svg"
   xmlns="http://www.w3.org/2000/svg"
   version="1.1"
   id="svg10221"
   xml:space="preserve"
   width="7218.9067"
   height="1625.2"
   viewBox="0 0 7218.9067 1625.2"><metadata
     id="metadata10227"><rdf:RDF><cc:Work
         rdf:about=""><dc:format>image/svg+xml</dc:format><dc:type
           rdf:resource="http://purl.org/dc/dcmitype/StillImage" /><dc:title></dc:title></cc:Work></rdf:RDF></metadata><defs
     id="defs10225"><clipPath
       clipPathUnits="userSpaceOnUse"
       id="clipPath10357"><path
         d="M 0,1218.896 H 5414.177 V 0 H 0 Z"
         id="path10355" /></clipPath></defs><g
     id="g10229"
     transform="matrix(1.3333333,0,0,-1.3333333,0,1625.2)"><g
       id="g10231"
       transform="translate(118.2464,1100.2786)"><path
         d="M 0,0 H 5125.927 Z"
         style="fill:#231f20;fill-opacity:1;fill-rule:nonzero;stroke:none"
         id="path10233" /></g><g
       id="g10235"
       transform="translate(118.2471,1100.2783)"><path
         d="M 0,0 H 5125.926"
         style="fill:none;stroke:#231f20;stroke-width:10;stroke-linecap:butt;stroke-linejoin:miter;stroke-miterlimit:10;stroke-dasharray:none;stroke-opacity:1"
         id="path10237" /></g><g
       id="g10239"
       transform="translate(118.2464,534.3523)"><path
         d="M 0,0 H 5125.927 Z"
         style="fill:#231f20;fill-opacity:1;fill-rule:nonzero;stroke:none"
         id="path10241" /></g><g
       id="g10243"
       transform="translate(118.2471,534.3525)"><path
         d="M 0,0 H 5125.926"
         style="fill:none;stroke:#231f20;stroke-width:10;stroke-linecap:butt;stroke-linejoin:miter;stroke-miterlimit:10;stroke-dasharray:none;stroke-opacity:1"
         id="path10245" /></g><g
       id="g10247"
       transform="translate(118.2464,392.8708)"><path
         d="M 0,0 H 5125.925 Z"
         style="fill:#231f20;fill-opacity:1;fill-rule:nonzero;stroke:none"
         id="path10249" /></g><g
       id="g10251"
       transform="translate(118.2471,392.8711)"><path
         d="M 0,0 H 5125.925"
         style="fill:none;stroke:#231f20;stroke-width:10;stroke-linecap:butt;stroke-linejoin:miter;stroke-miterlimit:10;stroke-dasharray:none;stroke-opacity:1"
         id="path10253" /></g><g
       id="g10255"
       transform="translate(118.2464,675.8339)"><path
         d="M 0,0 H 5125.925 Z"
         style="fill:#231f20;fill-opacity:1;fill-rule:nonzero;stroke:none"
         id="path10257" /></g><g
       id="g10259"
       transform="translate(118.2461,675.834)"><path
         d="M 0,0 H 5125.926"
         style="fill:none;stroke:#231f20;stroke-width:10;stroke-linecap:butt;stroke-linejoin:miter;stroke-miterlimit:10;stroke-dasharray:none;stroke-opacity:1"
         id="path10261" /></g><g
       id="g10263"
       transform="translate(118.2464,958.7971)"><path
         d="M 0,0 H 5125.928 Z"
         style="fill:#231f20;fill-opacity:1;fill-rule:nonzero;stroke:none"
         id="path10265" /></g><g
       id="g10267"
       transform="translate(118.2471,958.7969)"><path
         d="M 0,0 H 5125.928"
         style="fill:none;stroke:#231f20;stroke-width:10;stroke-linecap:butt;stroke-linejoin:miter;stroke-miterlimit:10;stroke-dasharray:none;stroke-opacity:1"
         id="path10269" /></g><g
       id="g10271"
       transform="translate(118.2464,817.3155)"><path
         d="M 0,0 H 5125.928 Z"
         style="fill:#231f20;fill-opacity:1;fill-rule:nonzero;stroke:none"
         id="path10273" /></g><g
       id="g10275"
       transform="translate(118.2471,817.3154)"><path
         d="M 0,0 H 5125.928"
         style="fill:none;stroke:#231f20;stroke-width:10;stroke-linecap:butt;stroke-linejoin:miter;stroke-miterlimit:10;stroke-dasharray:none;stroke-opacity:1"
         id="path10277" /></g><g
       id="g10279"
       transform="translate(118.2471,1100.2783)"><path
         d="M 0,0 V -707.407"
         style="fill:none;stroke:#231f20;stroke-width:10;stroke-linecap:butt;stroke-linejoin:miter;stroke-miterlimit:10;stroke-dasharray:none;stroke-opacity:1"
         id="path10281" /></g><g
       id="g10283"
       transform="translate(4923.8042,1100.2783)"><path
         d="M 0,0 V -707.407"
         style="fill:none;stroke:#231f20;stroke-width:10;stroke-linecap:butt;stroke-linejoin:miter;stroke-miterlimit:10;stroke-dasharray:none;stroke-opacity:1"
         id="path10285" /></g><g
       id="g10287"
       transform="translate(4603.4331,1100.2783)"><path
         d="M 0,0 V -707.407"
         style="fill:none;stroke:#231f20;stroke-width:10;stroke-linecap:butt;stroke-linejoin:miter;stroke-miterlimit:10;stroke-dasharray:none;stroke-opacity:1"
         id="path10289" /></g><g
       id="g10291"
       transform="translate(4283.064,1100.2783)"><path
         d="M 0,0 V -707.407"
         style="fill:none;stroke:#231f20;stroke-width:10;stroke-linecap:butt;stroke-linejoin:miter;stroke-miterlimit:10;stroke-dasharray:none;stroke-opacity:1"
         id="path10293" /></g><g
       id="g10295"
       transform="translate(3962.6929,1100.2783)"><path
         d="M 0,0 V -707.407"
         style="fill:none;stroke:#231f20;stroke-width:10;stroke-linecap:butt;stroke-linejoin:miter;stroke-miterlimit:10;stroke-dasharray:none;stroke-opacity:1"
         id="path10297" /></g><g
       id="g10299"
       transform="translate(3642.3218,1100.2783)"><path
         d="M 0,0 V -707.407"
         style="fill:none;stroke:#231f20;stroke-width:10;stroke-linecap:butt;stroke-linejoin:miter;stroke-miterlimit:10;stroke-dasharray:none;stroke-opacity:1"
         id="path10301" /></g><g
       id="g10303"
       transform="translate(3321.9517,1100.2788)"><path
         d="M 0,0 V -707.408"
         style="fill:none;stroke:#231f20;stroke-width:10;stroke-linecap:butt;stroke-linejoin:miter;stroke-miterlimit:10;stroke-dasharray:none;stroke-opacity:1"
         id="path10305" /></g><g
       id="g10307"
       transform="translate(3001.5815,1100.2778)"><path
         d="M 0,0 V -707.407"
         style="fill:none;stroke:#231f20;stroke-width:10;stroke-linecap:butt;stroke-linejoin:miter;stroke-miterlimit:10;stroke-dasharray:none;stroke-opacity:1"
         id="path10309" /></g><g
       id="g10311"
       transform="translate(2681.2095,1100.2778)"><path
         d="M 0,0 V -707.407"
         style="fill:none;stroke:#231f20;stroke-width:10;stroke-linecap:butt;stroke-linejoin:miter;stroke-miterlimit:10;stroke-dasharray:none;stroke-opacity:1"
         id="path10313" /></g><g
       id="g10315"
       transform="translate(2360.8403,1100.2778)"><path
         d="M 0,0 V -707.407"
         style="fill:none;stroke:#231f20;stroke-width:10;stroke-linecap:butt;stroke-linejoin:miter;stroke-miterlimit:10;stroke-dasharray:none;stroke-opacity:1"
         id="path10317" /></g><g
       id="g10319"
       transform="translate(2040.4702,1100.2783)"><path
         d="M 0,0 V -707.407"
         style="fill:none;stroke:#231f20;stroke-width:10;stroke-linecap:butt;stroke-linejoin:miter;stroke-miterlimit:10;stroke-dasharray:none;stroke-opacity:1"
         id="path10321" /></g><g
       id="g10323"
       transform="translate(1720.0996,1100.2788)"><path
         d="M 0,0 V -707.408"
         style="fill:none;stroke:#231f20;stroke-width:10;stroke-linecap:butt;stroke-linejoin:miter;stroke-miterlimit:10;stroke-dasharray:none;stroke-opacity:1"
         id="path10325" /></g><g
       id="g10327"
       transform="translate(1399.729,1100.2788)"><path
         d="M 0,0 V -707.408"
         style="fill:none;stroke:#231f20;stroke-width:10;stroke-linecap:butt;stroke-linejoin:miter;stroke-miterlimit:10;stroke-dasharray:none;stroke-opacity:1"
         id="path10329" /></g><g
       id="g10331"
       transform="translate(1079.3584,1105.834)"><path
         d="M 0,0 V -707.407"
         style="fill:none;stroke:#231f20;stroke-width:10;stroke-linecap:butt;stroke-linejoin:miter;stroke-miterlimit:10;stroke-dasharray:none;stroke-opacity:1"
         id="path10333" /></g><g
       id="g10335"
       transform="translate(758.9878,1100.2783)"><path
         d="M 0,0 V -707.407"
         style="fill:none;stroke:#231f20;stroke-width:10;stroke-linecap:butt;stroke-linejoin:miter;stroke-miterlimit:10;stroke-dasharray:none;stroke-opacity:1"
         id="path10337" /></g><g
       id="g10339"
       transform="translate(438.6177,1100.2783)"><path
         d="M 0,0 V -707.407"
         style="fill:none;stroke:#231f20;stroke-width:10;stroke-linecap:butt;stroke-linejoin:miter;stroke-miterlimit:10;stroke-dasharray:none;stroke-opacity:1"
         id="path10341" /></g><g
       id="g10343"
       transform="translate(5244.1753,1100.2783)"><path
         d="M 0,0 V -707.407"
         style="fill:none;stroke:#231f20;stroke-width:10;stroke-linecap:butt;stroke-linejoin:miter;stroke-miterlimit:10;stroke-dasharray:none;stroke-opacity:1"
         id="path10345" /></g><text
       transform="matrix(1,0,0,-1,219.5068,174.0557)"
       style="font-variant:normal;font-weight:normal;font-stretch:normal;font-size:100px;font-family:'Myriad Pro';-inkscape-font-specification:MyriadPro-Regular;writing-mode:lr-tb;fill:#231f20;fill-opacity:1;fill-rule:nonzero;stroke:none"
       id="text10349"><tspan
         x="0 332.39999 656.59998 999.90002 1316.6 1629.9 1966.6 2293.3 2600 2916.7 2968 3230 3281.3 3576.7 3628 3893.3999 3944.7 4206.7002 4258 4496.7002 4548"
         y="0"
         id="tspan10347">123456789101112131415</tspan></text><g
       id="g10351"><g
         id="g10353"
         clip-path="url(#clipPath10357)"><g
           id="g10359"
           transform="translate(2569.5332,392.8711)"><path
             d="m 0,0 c 0,-31.31 -25.382,-56.692 -56.693,-56.692 -31.31,0 -56.693,25.382 -56.693,56.692 0,31.311 25.383,56.693 56.693,56.693 C -25.382,56.693 0,31.311 0,0"
             style="fill:#ed1c24;fill-opacity:1;fill-rule:nonzero;stroke:none"
             id="path10361" /></g><g
           id="g10363"
           transform="translate(2569.5332,392.8711)"><path
             d="m 0,0 c 0,-31.31 -25.382,-56.692 -56.693,-56.692 -31.31,0 -56.693,25.382 -56.693,56.692 0,31.311 25.383,56.693 56.693,56.693 C -25.382,56.693 0,31.311 0,0 Z"
             style="fill:none;stroke:#231f20;stroke-width:1;stroke-linecap:butt;stroke-linejoin:miter;stroke-miterlimit:10;stroke-dasharray:none;stroke-opacity:1"
             id="path10365" /></g><g
           id="g10367"
           transform="translate(2259.5317,392.8711)"><path
             d="m 0,0 c 0,-31.311 -25.381,-56.693 -56.692,-56.693 -31.311,0 -56.693,25.382 -56.693,56.693 0,31.311 25.382,56.693 56.693,56.693 C -25.381,56.693 0,31.311 0,0"
             style="fill:#231f20;fill-opacity:1;fill-rule:nonzero;stroke:none"
             id="path10369" /></g><g
           id="g10371"
           transform="translate(2259.5317,392.8711)"><path
             d="m 0,0 c 0,-31.311 -25.381,-56.693 -56.692,-56.693 -31.311,0 -56.693,25.382 -56.693,56.693 0,31.311 25.382,56.693 56.693,56.693 C -25.381,56.693 0,31.311 0,0 Z"
             style="fill:none;stroke:#231f20;stroke-width:10;stroke-linecap:butt;stroke-linejoin:miter;stroke-miterlimit:10;stroke-dasharray:none;stroke-opacity:1"
             id="path10373" /></g><g
           id="g10375"
           transform="translate(2569.5327,534.3516)"><path
             d="m 0,0 c 0,-31.309 -25.382,-56.691 -56.692,-56.691 -31.311,0 -56.694,25.382 -56.694,56.691 0,31.311 25.383,56.693 56.694,56.693 C -25.382,56.693 0,31.311 0,0"
             style="fill:#231f20;fill-opacity:1;fill-rule:nonzero;stroke:none"
             id="path10377" /></g><g
           id="g10379"
           transform="translate(2569.5327,534.3516)"><path
             d="m 0,0 c 0,-31.309 -25.382,-56.691 -56.692,-56.691 -31.311,0 -56.694,25.382 -56.694,56.691 0,31.311 25.383,56.693 56.694,56.693 C -25.382,56.693 0,31.311 0,0 Z"
             style="fill:none;stroke:#231f20;stroke-width:10;stroke-linecap:butt;stroke-linejoin:miter;stroke-miterlimit:10;stroke-dasharray:none;stroke-opacity:1"
             id="path10381" /></g><g
           id="g10383"
           transform="translate(2259.5327,534.3516)"><path
             d="m 0,0 c 0,-31.309 -25.382,-56.691 -56.692,-56.691 -31.311,0 -56.694,25.382 -56.694,56.691 0,31.311 25.383,56.693 56.694,56.693 C -25.382,56.693 0,31.311 0,0"
             style="fill:#231f20;fill-opacity:1;fill-rule:nonzero;stroke:none"
             id="path10385" /></g><g
           id="g10387"
           transform="translate(2259.5327,534.3516)"><path
             d="m 0,0 c 0,-31.309 -25.382,-56.691 -56.692,-56.691 -31.311,0 -56.694,25.382 -56.694,56.691 0,31.311 25.383,56.693 56.694,56.693 C -25.382,56.693 0,31.311 0,0 Z"
             style="fill:none;stroke:#231f20;stroke-width:10;stroke-linecap:butt;stroke-linejoin:miter;stroke-miterlimit:10;stroke-dasharray:none;stroke-opacity:1"
             id="path10389" /></g><g
           id="g10391"
           transform="translate(3219.5327,398.4268)"><path
             d="m 0,0 c 0,-31.31 -25.383,-56.692 -56.693,-56.692 -31.311,0 -56.694,25.382 -56.694,56.692 0,31.311 25.383,56.693 56.694,56.693 C -25.383,56.693 0,31.311 0,0"
             style="fill:#231f20;fill-opacity:1;fill-rule:nonzero;stroke:none"
             id="path10393" /></g><g
           id="g10395"
           transform="translate(3219.5327,398.4268)"><path
             d="m 0,0 c 0,-31.31 -25.383,-56.692 -56.693,-56.692 -31.311,0 -56.694,25.382 -56.694,56.692 0,31.311 25.383,56.693 56.694,56.693 C -25.383,56.693 0,31.311 0,0 Z"
             style="fill:none;stroke:#231f20;stroke-width:10;stroke-linecap:butt;stroke-linejoin:miter;stroke-miterlimit:10;stroke-dasharray:none;stroke-opacity:1"
             id="path10397" /></g><g
           id="g10399"
           transform="translate(3219.5327,534.3516)"><path
             d="m 0,0 c 0,-31.309 -25.382,-56.691 -56.692,-56.691 -31.312,0 -56.694,25.382 -56.694,56.691 0,31.311 25.382,56.693 56.694,56.693 C -25.382,56.693 0,31.311 0,0"
             style="fill:#231f20;fill-opacity:1;fill-rule:nonzero;stroke:none"
             id="path10401" /></g><g
           id="g10403"
           transform="translate(3219.5327,534.3516)"><path
             d="m 0,0 c 0,-31.309 -25.382,-56.691 -56.692,-56.691 -31.312,0 -56.694,25.382 -56.694,56.691 0,31.311 25.382,56.693 56.694,56.693 C -25.382,56.693 0,31.311 0,0 Z"
             style="fill:none;stroke:#231f20;stroke-width:10;stroke-linecap:butt;stroke-linejoin:miter;stroke-miterlimit:10;stroke-dasharray:none;stroke-opacity:1"
             id="path10405" /></g><g
           id="g10407"
           transform="translate(3219.5327,675.8335)"><path
             d="m 0,0 c 0,-31.31 -25.382,-56.692 -56.692,-56.692 -31.312,0 -56.694,25.382 -56.694,56.692 0,31.311 25.382,56.693 56.694,56.693 C -25.382,56.693 0,31.311 0,0"
             style="fill:#ed1c24;fill-opacity:1;fill-rule:nonzero;stroke:none"
             id="path10409" /></g><g
           id="g10411"
           transform="translate(3219.5327,675.8335)"><path
             d="m 0,0 c 0,-31.31 -25.382,-56.692 -56.692,-56.692 -31.312,0 -56.694,25.382 -56.694,56.692 0,31.311 25.382,56.693 56.694,56.693 C -25.382,56.693 0,31.311 0,0 Z"
             style="fill:none;stroke:#231f20;stroke-width:1;stroke-linecap:butt;stroke-linejoin:miter;stroke-miterlimit:10;stroke-dasharray:none;stroke-opacity:1"
             id="path10413" /></g><g
           id="g10415"
           transform="translate(3219.5327,817.3149)"><path
             d="m 0,0 c 0,-31.31 -25.382,-56.692 -56.692,-56.692 -31.312,0 -56.694,25.382 -56.694,56.692 0,31.311 25.382,56.693 56.694,56.693 C -25.382,56.693 0,31.311 0,0"
             style="fill:#231f20;fill-opacity:1;fill-rule:nonzero;stroke:none"
             id="path10417" /></g><g
           id="g10419"
           transform="translate(3219.5327,817.3149)"><path
             d="m 0,0 c 0,-31.31 -25.382,-56.692 -56.692,-56.692 -31.312,0 -56.694,25.382 -56.694,56.692 0,31.311 25.382,56.693 56.694,56.693 C -25.382,56.693 0,31.311 0,0 Z"
             style="fill:none;stroke:#231f20;stroke-width:10;stroke-linecap:butt;stroke-linejoin:miter;stroke-miterlimit:10;stroke-dasharray:none;stroke-opacity:1"
             id="path10421" /></g><g
           id="g10423"
           transform="translate(3219.5327,958.7964)"><path
             d="m 0,0 c 0,-31.31 -25.382,-56.692 -56.692,-56.692 -31.312,0 -56.694,25.382 -56.694,56.692 0,31.311 25.382,56.693 56.694,56.693 C -25.382,56.693 0,31.311 0,0"
             style="fill:#231f20;fill-opacity:1;fill-rule:nonzero;stroke:none"
             id="path10425" /></g><g
           id="g10427"
           transform="translate(3219.5327,958.7964)"><path
             d="m 0,0 c 0,-31.31 -25.382,-56.692 -56.692,-56.692 -31.312,0 -56.694,25.382 -56.694,56.692 0,31.311 25.382,56.693 56.694,56.693 C -25.382,56.693 0,31.311 0,0 Z"
             style="fill:none;stroke:#231f20;stroke-width:10;stroke-linecap:butt;stroke-linejoin:miter;stroke-miterlimit:10;stroke-dasharray:none;stroke-opacity:1"
             id="path10429" /></g><g
           id="g10431"
           transform="translate(2259.5327,675.8335)"><path
             d="m 0,0 c 0,-31.31 -25.382,-56.692 -56.692,-56.692 -31.311,0 -56.694,25.382 -56.694,56.692 0,31.311 25.383,56.693 56.694,56.693 C -25.382,56.693 0,31.311 0,0"
             style="fill:#231f20;fill-opacity:1;fill-rule:nonzero;stroke:none"
             id="path10433" /></g><g
           id="g10435"
           transform="translate(2259.5327,675.8335)"><path
             d="m 0,0 c 0,-31.31 -25.382,-56.692 -56.692,-56.692 -31.311,0 -56.694,25.382 -56.694,56.692 0,31.311 25.383,56.693 56.694,56.693 C -25.382,56.693 0,31.311 0,0 Z"
             style="fill:none;stroke:#231f20;stroke-width:10;stroke-linecap:butt;stroke-linejoin:miter;stroke-miterlimit:10;stroke-dasharray:none;stroke-opacity:1"
             id="path10437" /></g><g
           id="g10439"
           transform="translate(2932.8931,675.8335)"><path
             d="m 0,0 c 0,-31.31 -25.382,-56.692 -56.692,-56.692 -31.311,0 -56.694,25.382 -56.694,56.692 0,31.311 25.383,56.693 56.694,56.693 C -25.382,56.693 0,31.311 0,0"
             style="fill:#231f20;fill-opacity:1;fill-rule:nonzero;stroke:none"
             id="path10441" /></g><g
           id="g10443"
           transform="translate(2932.8931,675.8335)"><path
             d="m 0,0 c 0,-31.31 -25.382,-56.692 -56.692,-56.692 -31.311,0 -56.694,25.382 -56.694,56.692 0,31.311 25.383,56.693 56.694,56.693 C -25.382,56.693 0,31.311 0,0 Z"
             style="fill:none;stroke:#231f20;stroke-width:10;stroke-linecap:butt;stroke-linejoin:miter;stroke-miterlimit:10;stroke-dasharray:none;stroke-opacity:1"
             id="path10445" /></g><g
           id="g10447"
           transform="translate(2932.8931,817.3149)"><path
             d="m 0,0 c 0,-31.31 -25.382,-56.692 -56.692,-56.692 -31.311,0 -56.694,25.382 -56.694,56.692 0,31.311 25.383,56.693 56.694,56.693 C -25.382,56.693 0,31.311 0,0"
             style="fill:#231f20;fill-opacity:1;fill-rule:nonzero;stroke:none"
             id="path10449" /></g><g
           id="g10451"
           transform="translate(2932.8931,817.3149)"><path
             d="m 0,0 c 0,-31.31 -25.382,-56.692 -56.692,-56.692 -31.311,0 -56.694,25.382 -56.694,56.692 0,31.311 25.383,56.693 56.694,56.693 C -25.382,56.693 0,31.311 0,0 Z"
             style="fill:none;stroke:#231f20;stroke-width:10;stroke-linecap:butt;stroke-linejoin:miter;stroke-miterlimit:10;stroke-dasharray:none;stroke-opacity:1"
             id="path10453" /></g><g
           id="g10455"
           transform="translate(2569.5332,958.7964)"><path
             d="m 0,0 c 0,-31.31 -25.382,-56.692 -56.692,-56.692 -31.311,0 -56.694,25.382 -56.694,56.692 0,31.311 25.383,56.693 56.694,56.693 C -25.382,56.693 0,31.311 0,0"
             style="fill:#231f20;fill-opacity:1;fill-rule:nonzero;stroke:none"
             id="path10457" /></g><g
           id="g10459"
           transform="translate(2569.5332,958.7964)"><path
             d="m 0,0 c 0,-31.31 -25.382,-56.692 -56.692,-56.692 -31.311,0 -56.694,25.382 -56.694,56.692 0,31.311 25.383,56.693 56.694,56.693 C -25.382,56.693 0,31.311 0,0 Z"
             style="fill:none;stroke:#231f20;stroke-width:10;stroke-linecap:butt;stroke-linejoin:miter;stroke-miterlimit:10;stroke-dasharray:none;stroke-opacity:1"
             id="path10461" /></g><g
           id="g10463"
           transform="translate(2259.5332,1100.2773)"><path
             d="m 0,0 c 0,-31.31 -25.382,-56.692 -56.692,-56.692 -31.311,0 -56.694,25.382 -56.694,56.692 0,31.311 25.383,56.693 56.694,56.693 C -25.382,56.693 0,31.311 0,0"
             style="fill:#231f20;fill-opacity:1;fill-rule:nonzero;stroke:none"
             id="path10465" /></g><g
           id="g10467"
           transform="translate(2259.5332,1100.2773)"><path
             d="m 0,0 c 0,-31.31 -25.382,-56.692 -56.692,-56.692 -31.311,0 -56.694,25.382 -56.694,56.692 0,31.311 25.383,56.693 56.694,56.693 C -25.382,56.693 0,31.311 0,0 Z"
             style="fill:none;stroke:#231f20;stroke-width:10;stroke-linecap:butt;stroke-linejoin:miter;stroke-miterlimit:10;stroke-dasharray:none;stroke-opacity:1"
             id="path10469" /></g><g
           id="g10471"
           transform="translate(2569.5327,1105.8335)"><path
             d="m 0,0 c 0,-31.31 -25.382,-56.692 -56.692,-56.692 -31.311,0 -56.694,25.382 -56.694,56.692 0,31.311 25.383,56.693 56.694,56.693 C -25.382,56.693 0,31.311 0,0"
             style="fill:#ed1c24;fill-opacity:1;fill-rule:nonzero;stroke:none"
             id="path10473" /></g><g
           id="g10475"
           transform="translate(2569.5327,1105.8335)"><path
             d="m 0,0 c 0,-31.31 -25.382,-56.692 -56.692,-56.692 -31.311,0 -56.694,25.382 -56.694,56.692 0,31.311 25.383,56.693 56.694,56.693 C -25.382,56.693 0,31.311 0,0 Z"
             style="fill:none;stroke:#231f20;stroke-width:1;stroke-linecap:butt;stroke-linejoin:miter;stroke-miterlimit:10;stroke-dasharray:none;stroke-opacity:1"
             id="path10477" /></g><g
           id="g10479"
           transform="translate(3219.5327,1100.2773)"><path
             d="m 0,0 c 0,-31.31 -25.382,-56.692 -56.692,-56.692 -31.312,0 -56.694,25.382 -56.694,56.692 0,31.311 25.382,56.693 56.694,56.693 C -25.382,56.693 0,31.311 0,0"
             style="fill:#231f20;fill-opacity:1;fill-rule:nonzero;stroke:none"
             id="path10481" /></g><g
           id="g10483"
           transform="translate(3219.5327,1100.2773)"><path
             d="m 0,0 c 0,-31.31 -25.382,-56.692 -56.692,-56.692 -31.312,0 -56.694,25.382 -56.694,56.692 0,31.311 25.382,56.693 56.694,56.693 C -25.382,56.693 0,31.311 0,0 Z"
             style="fill:none;stroke:#231f20;stroke-width:10;stroke-linecap:butt;stroke-linejoin:miter;stroke-miterlimit:10;stroke-dasharray:none;stroke-opacity:1"
             id="path10485" /></g><g
           id="g10487"
           transform="translate(2259.5327,817.3145)"><path
             d="m 0,0 c 0,-31.309 -25.382,-56.691 -56.692,-56.691 -31.311,0 -56.694,25.382 -56.694,56.691 0,31.311 25.383,56.693 56.694,56.693 C -25.382,56.693 0,31.311 0,0"
             style="fill:#231f20;fill-opacity:1;fill-rule:nonzero;stroke:none"
             id="path10489" /></g><g
           id="g10491"
           transform="translate(2259.5327,817.3145)"><path
             d="m 0,0 c 0,-31.309 -25.382,-56.691 -56.692,-56.691 -31.311,0 -56.694,25.382 -56.694,56.691 0,31.311 25.383,56.693 56.694,56.693 C -25.382,56.693 0,31.311 0,0 Z"
             style="fill:none;stroke:#231f20;stroke-width:10;stroke-linecap:butt;stroke-linejoin:miter;stroke-miterlimit:10;stroke-dasharray:none;stroke-opacity:1"
             id="path10493" /></g><g
           id="g10495"
           transform="translate(332.8926,392.8711)"><path
             d="m 0,0 c 0,-31.311 -25.382,-56.693 -56.692,-56.693 -31.311,0 -56.694,25.382 -56.694,56.693 0,31.311 25.383,56.693 56.694,56.693 C -25.382,56.693 0,31.311 0,0"
             style="fill:#231f20;fill-opacity:1;fill-rule:nonzero;stroke:none"
             id="path10497" /></g><g
           id="g10499"
           transform="translate(332.8926,392.8711)"><path
             d="m 0,0 c 0,-31.311 -25.382,-56.693 -56.692,-56.693 -31.311,0 -56.694,25.382 -56.694,56.693 0,31.311 25.383,56.693 56.694,56.693 C -25.382,56.693 0,31.311 0,0 Z"
             style="fill:none;stroke:#231f20;stroke-width:10;stroke-linecap:butt;stroke-linejoin:miter;stroke-miterlimit:10;stroke-dasharray:none;stroke-opacity:1"
             id="path10501" /></g><g
           id="g10503"
           transform="translate(956.2256,392.8711)"><path
             d="m 0,0 c 0,-31.311 -25.382,-56.693 -56.692,-56.693 -31.311,0 -56.694,25.382 -56.694,56.693 0,31.311 25.383,56.693 56.694,56.693 C -25.382,56.693 0,31.311 0,0"
             style="fill:#231f20;fill-opacity:1;fill-rule:nonzero;stroke:none"
             id="path10505" /></g><g
           id="g10507"
           transform="translate(956.2256,392.8711)"><path
             d="m 0,0 c 0,-31.311 -25.382,-56.693 -56.692,-56.693 -31.311,0 -56.694,25.382 -56.694,56.693 0,31.311 25.383,56.693 56.694,56.693 C -25.382,56.693 0,31.311 0,0 Z"
             style="fill:none;stroke:#231f20;stroke-width:10;stroke-linecap:butt;stroke-linejoin:miter;stroke-miterlimit:10;stroke-dasharray:none;stroke-opacity:1"
             id="path10509" /></g><g
           id="g10511"
           transform="translate(956.2256,534.3525)"><path
             d="m 0,0 c 0,-31.311 -25.382,-56.693 -56.692,-56.693 -31.311,0 -56.694,25.382 -56.694,56.693 0,31.311 25.383,56.693 56.694,56.693 C -25.382,56.693 0,31.311 0,0"
             style="fill:#ed1c24;fill-opacity:1;fill-rule:nonzero;stroke:none"
             id="path10513" /></g><g
           id="g10515"
           transform="translate(956.2256,534.3525)"><path
             d="m 0,0 c 0,-31.311 -25.382,-56.693 -56.692,-56.693 -31.311,0 -56.694,25.382 -56.694,56.693 0,31.311 25.383,56.693 56.694,56.693 C -25.382,56.693 0,31.311 0,0 Z"
             style="fill:none;stroke:#231f20;stroke-width:1;stroke-linecap:butt;stroke-linejoin:miter;stroke-miterlimit:10;stroke-dasharray:none;stroke-opacity:1"
             id="path10517" /></g><g
           id="g10519"
           transform="translate(956.2256,675.834)"><path
             d="m 0,0 c 0,-31.311 -25.382,-56.693 -56.692,-56.693 -31.311,0 -56.694,25.382 -56.694,56.693 0,31.311 25.383,56.693 56.694,56.693 C -25.382,56.693 0,31.311 0,0"
             style="fill:#231f20;fill-opacity:1;fill-rule:nonzero;stroke:none"
             id="path10521" /></g><g
           id="g10523"
           transform="translate(956.2256,675.834)"><path
             d="m 0,0 c 0,-31.311 -25.382,-56.693 -56.692,-56.693 -31.311,0 -56.694,25.382 -56.694,56.693 0,31.311 25.383,56.693 56.694,56.693 C -25.382,56.693 0,31.311 0,0 Z"
             style="fill:none;stroke:#231f20;stroke-width:10;stroke-linecap:butt;stroke-linejoin:miter;stroke-miterlimit:10;stroke-dasharray:none;stroke-opacity:1"
             id="path10525" /></g><g
           id="g10527"
           transform="translate(956.2256,958.7969)"><path
             d="m 0,0 c 0,-31.311 -25.382,-56.693 -56.692,-56.693 -31.311,0 -56.694,25.382 -56.694,56.693 0,31.311 25.383,56.693 56.694,56.693 C -25.382,56.693 0,31.311 0,0"
             style="fill:#231f20;fill-opacity:1;fill-rule:nonzero;stroke:none"
             id="path10529" /></g><g
           id="g10531"
           transform="translate(956.2256,958.7969)"><path
             d="m 0,0 c 0,-31.311 -25.382,-56.693 -56.692,-56.693 -31.311,0 -56.694,25.382 -56.694,56.693 0,31.311 25.383,56.693 56.694,56.693 C -25.382,56.693 0,31.311 0,0 Z"
             style="fill:none;stroke:#231f20;stroke-width:10;stroke-linecap:butt;stroke-linejoin:miter;stroke-miterlimit:10;stroke-dasharray:none;stroke-opacity:1"
             id="path10533" /></g><g
           id="g10535"
           transform="translate(956.2261,1100.2783)"><path
             d="m 0,0 c 0,-31.311 -25.382,-56.693 -56.692,-56.693 -31.311,0 -56.694,25.382 -56.694,56.693 0,31.311 25.383,56.693 56.694,56.693 C -25.382,56.693 0,31.311 0,0"
             style="fill:#231f20;fill-opacity:1;fill-rule:nonzero;stroke:none"
             id="path10537" /></g><g
           id="g10539"
           transform="translate(956.2261,1100.2783)"><path
             d="m 0,0 c 0,-31.311 -25.382,-56.693 -56.692,-56.693 -31.311,0 -56.694,25.382 -56.694,56.693 0,31.311 25.383,56.693 56.694,56.693 C -25.382,56.693 0,31.311 0,0 Z"
             style="fill:none;stroke:#231f20;stroke-width:10;stroke-linecap:butt;stroke-linejoin:miter;stroke-miterlimit:10;stroke-dasharray:none;stroke-opacity:1"
             id="path10541" /></g><g
           id="g10543"
           transform="translate(665.3369,534.3516)"><path
             d="m 0,0 c 0,-31.311 -25.382,-56.693 -56.692,-56.693 -31.311,0 -56.694,25.382 -56.694,56.693 0,31.311 25.383,56.693 56.694,56.693 C -25.382,56.693 0,31.311 0,0"
             style="fill:#231f20;fill-opacity:1;fill-rule:nonzero;stroke:none"
             id="path10545" /></g><g
           id="g10547"
           transform="translate(665.3369,534.3516)"><path
             d="m 0,0 c 0,-31.311 -25.382,-56.693 -56.692,-56.693 -31.311,0 -56.694,25.382 -56.694,56.693 0,31.311 25.383,56.693 56.694,56.693 C -25.382,56.693 0,31.311 0,0 Z"
             style="fill:none;stroke:#231f20;stroke-width:10;stroke-linecap:butt;stroke-linejoin:miter;stroke-miterlimit:10;stroke-dasharray:none;stroke-opacity:1"
             id="path10549" /></g><g
           id="g10551"
           transform="translate(665.3369,675.834)"><path
             d="m 0,0 c 0,-31.311 -25.382,-56.693 -56.692,-56.693 -31.311,0 -56.694,25.382 -56.694,56.693 0,31.311 25.383,56.693 56.694,56.693 C -25.382,56.693 0,31.311 0,0"
             style="fill:#231f20;fill-opacity:1;fill-rule:nonzero;stroke:none"
             id="path10553" /></g><g
           id="g10555"
           transform="translate(665.3369,675.834)"><path
             d="m 0,0 c 0,-31.311 -25.382,-56.693 -56.692,-56.693 -31.311,0 -56.694,25.382 -56.694,56.693 0,31.311 25.383,56.693 56.694,56.693 C -25.382,56.693 0,31.311 0,0 Z"
             style="fill:none;stroke:#231f20;stroke-width:10;stroke-linecap:butt;stroke-linejoin:miter;stroke-miterlimit:10;stroke-dasharray:none;stroke-opacity:1"
             id="path10557" /></g><g
           id="g10559"
           transform="translate(665.3369,817.3154)"><path
             d="m 0,0 c 0,-31.311 -25.382,-56.693 -56.692,-56.693 -31.311,0 -56.694,25.382 -56.694,56.693 0,31.311 25.383,56.693 56.694,56.693 C -25.382,56.693 0,31.311 0,0"
             style="fill:#231f20;fill-opacity:1;fill-rule:nonzero;stroke:none"
             id="path10561" /></g><g
           id="g10563"
           transform="translate(665.3369,817.3154)"><path
             d="m 0,0 c 0,-31.311 -25.382,-56.693 -56.692,-56.693 -31.311,0 -56.694,25.382 -56.694,56.693 0,31.311 25.383,56.693 56.694,56.693 C -25.382,56.693 0,31.311 0,0 Z"
             style="fill:none;stroke:#231f20;stroke-width:10;stroke-linecap:butt;stroke-linejoin:miter;stroke-miterlimit:10;stroke-dasharray:none;stroke-opacity:1"
             id="path10565" /></g><g
           id="g10567"
           transform="translate(332.8926,958.7969)"><path
             d="m 0,0 c 0,-31.311 -25.382,-56.693 -56.692,-56.693 -31.311,0 -56.694,25.382 -56.694,56.693 0,31.311 25.383,56.693 56.694,56.693 C -25.382,56.693 0,31.311 0,0"
             style="fill:#ed1c24;fill-opacity:1;fill-rule:nonzero;stroke:none"
             id="path10569" /></g><g
           id="g10571"
           transform="translate(332.8926,958.7969)"><path
             d="m 0,0 c 0,-31.311 -25.382,-56.693 -56.692,-56.693 -31.311,0 -56.694,25.382 -56.694,56.693 0,31.311 25.383,56.693 56.694,56.693 C -25.382,56.693 0,31.311 0,0 Z"
             style="fill:none;stroke:#231f20;stroke-width:1;stroke-linecap:butt;stroke-linejoin:miter;stroke-miterlimit:10;stroke-dasharray:none;stroke-opacity:1"
             id="path10573" /></g><g
           id="g10575"
           transform="translate(332.8926,1100.2783)"><path
             d="m 0,0 c 0,-31.311 -25.382,-56.693 -56.692,-56.693 -31.311,0 -56.694,25.382 -56.694,56.693 0,31.311 25.383,56.693 56.694,56.693 C -25.382,56.693 0,31.311 0,0"
             style="fill:#231f20;fill-opacity:1;fill-rule:nonzero;stroke:none"
             id="path10577" /></g><g
           id="g10579"
           transform="translate(332.8926,1100.2783)"><path
             d="m 0,0 c 0,-31.311 -25.382,-56.693 -56.692,-56.693 -31.311,0 -56.694,25.382 -56.694,56.693 0,31.311 25.383,56.693 56.694,56.693 C -25.382,56.693 0,31.311 0,0 Z"
             style="fill:none;stroke:#231f20;stroke-width:10;stroke-linecap:butt;stroke-linejoin:miter;stroke-miterlimit:10;stroke-dasharray:none;stroke-opacity:1"
             id="path10581" /></g><g
           id="g10583"
           transform="translate(127.5591,398.4277)"><path
             d="m 0,0 c 0,-31.311 -25.382,-56.693 -56.692,-56.693 -31.311,0 -56.694,25.382 -56.694,56.693 0,31.311 25.383,56.693 56.694,56.693 C -25.382,56.693 0,31.311 0,0"
             style="fill:#231f20;fill-opacity:1;fill-rule:nonzero;stroke:none"
             id="path10585" /></g><g
           id="g10587"
           transform="translate(127.5591,398.4277)"><path
             d="m 0,0 c 0,-31.311 -25.382,-56.693 -56.692,-56.693 -31.311,0 -56.694,25.382 -56.694,56.693 0,31.311 25.383,56.693 56.694,56.693 C -25.382,56.693 0,31.311 0,0 Z"
             style="fill:none;stroke:#231f20;stroke-width:10;stroke-linecap:butt;stroke-linejoin:miter;stroke-miterlimit:10;stroke-dasharray:none;stroke-opacity:1"
             id="path10589" /></g><g
           id="g10591"
           transform="translate(127.5596,675.834)"><path
             d="m 0,0 c 0,-31.311 -25.382,-56.693 -56.692,-56.693 -31.311,0 -56.694,25.382 -56.694,56.693 0,31.311 25.383,56.693 56.694,56.693 C -25.382,56.693 0,31.311 0,0"
             style="fill:#231f20;fill-opacity:1;fill-rule:nonzero;stroke:none"
             id="path10593" /></g><g
           id="g10595"
           transform="translate(127.5596,675.834)"><path
             d="m 0,0 c 0,-31.311 -25.382,-56.693 -56.692,-56.693 -31.311,0 -56.694,25.382 -56.694,56.693 0,31.311 25.383,56.693 56.694,56.693 C -25.382,56.693 0,31.311 0,0 Z"
             style="fill:none;stroke:#231f20;stroke-width:10;stroke-linecap:butt;stroke-linejoin:miter;stroke-miterlimit:10;stroke-dasharray:none;stroke-opacity:1"
             id="path10597" /></g><g
           id="g10599"
           transform="translate(127.5596,534.3525)"><path
             d="m 0,0 c 0,-31.311 -25.382,-56.693 -56.692,-56.693 -31.311,0 -56.694,25.382 -56.694,56.693 0,31.311 25.383,56.693 56.694,56.693 C -25.382,56.693 0,31.311 0,0"
             style="fill:#231f20;fill-opacity:1;fill-rule:nonzero;stroke:none"
             id="path10601" /></g><g
           id="g10603"
           transform="translate(127.5596,534.3525)"><path
             d="m 0,0 c 0,-31.311 -25.382,-56.693 -56.692,-56.693 -31.311,0 -56.694,25.382 -56.694,56.693 0,31.311 25.383,56.693 56.694,56.693 C -25.382,56.693 0,31.311 0,0 Z"
             style="fill:none;stroke:#231f20;stroke-width:10;stroke-linecap:butt;stroke-linejoin:miter;stroke-miterlimit:10;stroke-dasharray:none;stroke-opacity:1"
             id="path10605" /></g><g
           id="g10607"
           transform="translate(127.5596,817.3154)"><path
             d="m 0,0 c 0,-31.311 -25.382,-56.693 -56.692,-56.693 -31.311,0 -56.694,25.382 -56.694,56.693 0,31.311 25.383,56.693 56.694,56.693 C -25.382,56.693 0,31.311 0,0"
             style="fill:#231f20;fill-opacity:1;fill-rule:nonzero;stroke:none"
             id="path10609" /></g><g
           id="g10611"
           transform="translate(127.5596,817.3154)"><path
             d="m 0,0 c 0,-31.311 -25.382,-56.693 -56.692,-56.693 -31.311,0 -56.694,25.382 -56.694,56.693 0,31.311 25.383,56.693 56.694,56.693 C -25.382,56.693 0,31.311 0,0 Z"
             style="fill:none;stroke:#231f20;stroke-width:10;stroke-linecap:butt;stroke-linejoin:miter;stroke-miterlimit:10;stroke-dasharray:none;stroke-opacity:1"
             id="path10613" /></g><g
           id="g10615"
           transform="translate(127.5596,958.7969)"><path
             d="m 0,0 c 0,-31.311 -25.382,-56.693 -56.692,-56.693 -31.311,0 -56.694,25.382 -56.694,56.693 0,31.311 25.383,56.693 56.694,56.693 C -25.382,56.693 0,31.311 0,0"
             style="fill:#231f20;fill-opacity:1;fill-rule:nonzero;stroke:none"
             id="path10617" /></g><g
           id="g10619"
           transform="translate(127.5596,958.7969)"><path
             d="m 0,0 c 0,-31.311 -25.382,-56.693 -56.692,-56.693 -31.311,0 -56.694,25.382 -56.694,56.693 0,31.311 25.383,56.693 56.694,56.693 C -25.382,56.693 0,31.311 0,0 Z"
             style="fill:none;stroke:#231f20;stroke-width:10;stroke-linecap:butt;stroke-linejoin:miter;stroke-miterlimit:10;stroke-dasharray:none;stroke-opacity:1"
             id="path10621" /></g><g
           id="g10623"
           transform="translate(127.5591,1100.2783)"><path
             d="m 0,0 c 0,-31.311 -25.382,-56.693 -56.692,-56.693 -31.311,0 -56.694,25.382 -56.694,56.693 0,31.311 25.383,56.693 56.694,56.693 C -25.382,56.693 0,31.311 0,0"
             style="fill:#231f20;fill-opacity:1;fill-rule:nonzero;stroke:none"
             id="path10625" /></g><g
           id="g10627"
           transform="translate(127.5591,1100.2783)"><path
             d="m 0,0 c 0,-31.311 -25.382,-56.693 -56.692,-56.693 -31.311,0 -56.694,25.382 -56.694,56.693 0,31.311 25.383,56.693 56.694,56.693 C -25.382,56.693 0,31.311 0,0 Z"
             style="fill:none;stroke:#231f20;stroke-width:10;stroke-linecap:butt;stroke-linejoin:miter;stroke-miterlimit:10;stroke-dasharray:none;stroke-opacity:1"
             id="path10629" /></g><g
           id="g10631"
           transform="translate(1649.5596,392.8711)"><path
             d="m 0,0 c 0,-31.311 -25.382,-56.693 -56.692,-56.693 -31.311,0 -56.694,25.382 -56.694,56.693 0,31.311 25.383,56.693 56.694,56.693 C -25.382,56.693 0,31.311 0,0"
             style="fill:#231f20;fill-opacity:1;fill-rule:nonzero;stroke:none"
             id="path10633" /></g><g
           id="g10635"
           transform="translate(1649.5596,392.8711)"><path
             d="m 0,0 c 0,-31.311 -25.382,-56.693 -56.692,-56.693 -31.311,0 -56.694,25.382 -56.694,56.693 0,31.311 25.383,56.693 56.694,56.693 C -25.382,56.693 0,31.311 0,0 Z"
             style="fill:none;stroke:#231f20;stroke-width:10;stroke-linecap:butt;stroke-linejoin:miter;stroke-miterlimit:10;stroke-dasharray:none;stroke-opacity:1"
             id="path10637" /></g><g
           id="g10639"
           transform="translate(1649.5596,534.3525)"><path
             d="m 0,0 c 0,-31.311 -25.382,-56.693 -56.692,-56.693 -31.311,0 -56.694,25.382 -56.694,56.693 0,31.311 25.383,56.693 56.694,56.693 C -25.382,56.693 0,31.311 0,0"
             style="fill:#231f20;fill-opacity:1;fill-rule:nonzero;stroke:none"
             id="path10641" /></g><g
           id="g10643"
           transform="translate(1649.5596,534.3525)"><path
             d="m 0,0 c 0,-31.311 -25.382,-56.693 -56.692,-56.693 -31.311,0 -56.694,25.382 -56.694,56.693 0,31.311 25.383,56.693 56.694,56.693 C -25.382,56.693 0,31.311 0,0 Z"
             style="fill:none;stroke:#231f20;stroke-width:10;stroke-linecap:butt;stroke-linejoin:miter;stroke-miterlimit:10;stroke-dasharray:none;stroke-opacity:1"
             id="path10645" /></g><g
           id="g10647"
           transform="translate(1649.5596,675.834)"><path
             d="m 0,0 c 0,-31.311 -25.382,-56.693 -56.692,-56.693 -31.311,0 -56.694,25.382 -56.694,56.693 0,31.311 25.383,56.693 56.694,56.693 C -25.382,56.693 0,31.311 0,0"
             style="fill:#231f20;fill-opacity:1;fill-rule:nonzero;stroke:none"
             id="path10649" /></g><g
           id="g10651"
           transform="translate(1649.5596,675.834)"><path
             d="m 0,0 c 0,-31.311 -25.382,-56.693 -56.692,-56.693 -31.311,0 -56.694,25.382 -56.694,56.693 0,31.311 25.383,56.693 56.694,56.693 C -25.382,56.693 0,31.311 0,0 Z"
             style="fill:none;stroke:#231f20;stroke-width:10;stroke-linecap:butt;stroke-linejoin:miter;stroke-miterlimit:10;stroke-dasharray:none;stroke-opacity:1"
             id="path10653" /></g><g
           id="g10655"
           transform="translate(1649.5596,817.3154)"><path
             d="m 0,0 c 0,-31.311 -25.382,-56.693 -56.692,-56.693 -31.311,0 -56.694,25.382 -56.694,56.693 0,31.311 25.383,56.693 56.694,56.693 C -25.382,56.693 0,31.311 0,0"
             style="fill:#ed1c24;fill-opacity:1;fill-rule:nonzero;stroke:none"
             id="path10657" /></g><g
           id="g10659"
           transform="translate(1649.5596,817.3154)"><path
             d="m 0,0 c 0,-31.311 -25.382,-56.693 -56.692,-56.693 -31.311,0 -56.694,25.382 -56.694,56.693 0,31.311 25.383,56.693 56.694,56.693 C -25.382,56.693 0,31.311 0,0 Z"
             style="fill:none;stroke:#231f20;stroke-width:1;stroke-linecap:butt;stroke-linejoin:miter;stroke-miterlimit:10;stroke-dasharray:none;stroke-opacity:1"
             id="path10661" /></g><g
           id="g10663"
           transform="translate(1649.5596,958.7969)"><path
             d="m 0,0 c 0,-31.311 -25.382,-56.693 -56.692,-56.693 -31.311,0 -56.694,25.382 -56.694,56.693 0,31.311 25.383,56.693 56.694,56.693 C -25.382,56.693 0,31.311 0,0"
             style="fill:#231f20;fill-opacity:1;fill-rule:nonzero;stroke:none"
             id="path10665" /></g><g
           id="g10667"
           transform="translate(1649.5596,958.7969)"><path
             d="m 0,0 c 0,-31.311 -25.382,-56.693 -56.692,-56.693 -31.311,0 -56.694,25.382 -56.694,56.693 0,31.311 25.383,56.693 56.694,56.693 C -25.382,56.693 0,31.311 0,0 Z"
             style="fill:none;stroke:#231f20;stroke-width:10;stroke-linecap:butt;stroke-linejoin:miter;stroke-miterlimit:10;stroke-dasharray:none;stroke-opacity:1"
             id="path10669" /></g><g
           id="g10671"
           transform="translate(1649.5596,1100.2778)"><path
             d="m 0,0 c 0,-31.311 -25.382,-56.693 -56.692,-56.693 -31.311,0 -56.694,25.382 -56.694,56.693 0,31.311 25.383,56.693 56.694,56.693 C -25.382,56.693 0,31.311 0,0"
             style="fill:#231f20;fill-opacity:1;fill-rule:nonzero;stroke:none"
             id="path10673" /></g><g
           id="g10675"
           transform="translate(1649.5596,1100.2778)"><path
             d="m 0,0 c 0,-31.311 -25.382,-56.693 -56.692,-56.693 -31.311,0 -56.694,25.382 -56.694,56.693 0,31.311 25.383,56.693 56.694,56.693 C -25.382,56.693 0,31.311 0,0 Z"
             style="fill:none;stroke:#231f20;stroke-width:10;stroke-linecap:butt;stroke-linejoin:miter;stroke-miterlimit:10;stroke-dasharray:none;stroke-opacity:1"
             id="path10677" /></g><g
           id="g10679"
           transform="translate(1309.8394,817.3154)"><path
             d="m 0,0 c 0,-31.311 -25.382,-56.693 -56.692,-56.693 -31.311,0 -56.694,25.382 -56.694,56.693 0,31.311 25.383,56.693 56.694,56.693 C -25.382,56.693 0,31.311 0,0"
             style="fill:#231f20;fill-opacity:1;fill-rule:nonzero;stroke:none"
             id="path10681" /></g><g
           id="g10683"
           transform="translate(1309.8394,817.3154)"><path
             d="m 0,0 c 0,-31.311 -25.382,-56.693 -56.692,-56.693 -31.311,0 -56.694,25.382 -56.694,56.693 0,31.311 25.383,56.693 56.694,56.693 C -25.382,56.693 0,31.311 0,0 Z"
             style="fill:none;stroke:#231f20;stroke-width:10;stroke-linecap:butt;stroke-linejoin:miter;stroke-miterlimit:10;stroke-dasharray:none;stroke-opacity:1"
             id="path10685" /></g><g
           id="g10687"
           transform="translate(1962.8931,958.7969)"><path
             d="m 0,0 c 0,-31.311 -25.382,-56.693 -56.692,-56.693 -31.311,0 -56.694,25.382 -56.694,56.693 0,31.311 25.383,56.693 56.694,56.693 C -25.382,56.693 0,31.311 0,0"
             style="fill:#231f20;fill-opacity:1;fill-rule:nonzero;stroke:none"
             id="path10689" /></g><g
           id="g10691"
           transform="translate(1962.8931,958.7969)"><path
             d="m 0,0 c 0,-31.311 -25.382,-56.693 -56.692,-56.693 -31.311,0 -56.694,25.382 -56.694,56.693 0,31.311 25.383,56.693 56.694,56.693 C -25.382,56.693 0,31.311 0,0 Z"
             style="fill:none;stroke:#231f20;stroke-width:10;stroke-linecap:butt;stroke-linejoin:miter;stroke-miterlimit:10;stroke-dasharray:none;stroke-opacity:1"
             id="path10693" /></g><g
           id="g10695"
           transform="translate(3886.2026,398.4277)"><path
             d="m 0,0 c 0,-31.311 -25.383,-56.693 -56.693,-56.693 -31.311,0 -56.694,25.382 -56.694,56.693 0,31.311 25.383,56.693 56.694,56.693 C -25.383,56.693 0,31.311 0,0"
             style="fill:#231f20;fill-opacity:1;fill-rule:nonzero;stroke:none"
             id="path10697" /></g><g
           id="g10699"
           transform="translate(3886.2026,398.4277)"><path
             d="m 0,0 c 0,-31.311 -25.383,-56.693 -56.693,-56.693 -31.311,0 -56.694,25.382 -56.694,56.693 0,31.311 25.383,56.693 56.694,56.693 C -25.383,56.693 0,31.311 0,0 Z"
             style="fill:none;stroke:#231f20;stroke-width:10;stroke-linecap:butt;stroke-linejoin:miter;stroke-miterlimit:10;stroke-dasharray:none;stroke-opacity:1"
             id="path10701" /></g><g
           id="g10703"
           transform="translate(3886.2026,534.3525)"><path
             d="m 0,0 c 0,-31.311 -25.383,-56.693 -56.693,-56.693 -31.311,0 -56.694,25.382 -56.694,56.693 0,31.311 25.383,56.693 56.694,56.693 C -25.383,56.693 0,31.311 0,0"
             style="fill:#231f20;fill-opacity:1;fill-rule:nonzero;stroke:none"
             id="path10705" /></g><g
           id="g10707"
           transform="translate(3886.2026,534.3525)"><path
             d="m 0,0 c 0,-31.311 -25.383,-56.693 -56.693,-56.693 -31.311,0 -56.694,25.382 -56.694,56.693 0,31.311 25.383,56.693 56.694,56.693 C -25.383,56.693 0,31.311 0,0 Z"
             style="fill:none;stroke:#231f20;stroke-width:10;stroke-linecap:butt;stroke-linejoin:miter;stroke-miterlimit:10;stroke-dasharray:none;stroke-opacity:1"
             id="path10709" /></g><g
           id="g10711"
           transform="translate(3886.2026,675.834)"><path
             d="m 0,0 c 0,-31.311 -25.383,-56.693 -56.693,-56.693 -31.311,0 -56.694,25.382 -56.694,56.693 0,31.311 25.383,56.693 56.694,56.693 C -25.383,56.693 0,31.311 0,0"
             style="fill:#231f20;fill-opacity:1;fill-rule:nonzero;stroke:none"
             id="path10713" /></g><g
           id="g10715"
           transform="translate(3886.2026,675.834)"><path
             d="m 0,0 c 0,-31.311 -25.383,-56.693 -56.693,-56.693 -31.311,0 -56.694,25.382 -56.694,56.693 0,31.311 25.383,56.693 56.694,56.693 C -25.383,56.693 0,31.311 0,0 Z"
             style="fill:none;stroke:#231f20;stroke-width:10;stroke-linecap:butt;stroke-linejoin:miter;stroke-miterlimit:10;stroke-dasharray:none;stroke-opacity:1"
             id="path10717" /></g><g
           id="g10719"
           transform="translate(3886.2026,817.3154)"><path
             d="m 0,0 c 0,-31.311 -25.383,-56.693 -56.693,-56.693 -31.311,0 -56.694,25.382 -56.694,56.693 0,31.311 25.383,56.693 56.694,56.693 C -25.383,56.693 0,31.311 0,0"
             style="fill:#231f20;fill-opacity:1;fill-rule:nonzero;stroke:none"
             id="path10721" /></g><g
           id="g10723"
           transform="translate(3886.2026,817.3154)"><path
             d="m 0,0 c 0,-31.311 -25.383,-56.693 -56.693,-56.693 -31.311,0 -56.694,25.382 -56.694,56.693 0,31.311 25.383,56.693 56.694,56.693 C -25.383,56.693 0,31.311 0,0 Z"
             style="fill:none;stroke:#231f20;stroke-width:10;stroke-linecap:butt;stroke-linejoin:miter;stroke-miterlimit:10;stroke-dasharray:none;stroke-opacity:1"
             id="path10725" /></g><g
           id="g10727"
           transform="translate(3886.2026,958.7969)"><path
             d="m 0,0 c 0,-31.311 -25.383,-56.693 -56.693,-56.693 -31.311,0 -56.694,25.382 -56.694,56.693 0,31.311 25.383,56.693 56.694,56.693 C -25.383,56.693 0,31.311 0,0"
             style="fill:#231f20;fill-opacity:1;fill-rule:nonzero;stroke:none"
             id="path10729" /></g><g
           id="g10731"
           transform="translate(3886.2026,958.7969)"><path
             d="m 0,0 c 0,-31.311 -25.383,-56.693 -56.693,-56.693 -31.311,0 -56.694,25.382 -56.694,56.693 0,31.311 25.383,56.693 56.694,56.693 C -25.383,56.693 0,31.311 0,0 Z"
             style="fill:none;stroke:#231f20;stroke-width:10;stroke-linecap:butt;stroke-linejoin:miter;stroke-miterlimit:10;stroke-dasharray:none;stroke-opacity:1"
             id="path10733" /></g><g
           id="g10735"
           transform="translate(3886.2026,1100.2788)"><path
             d="m 0,0 c 0,-31.311 -25.383,-56.693 -56.693,-56.693 -31.311,0 -56.694,25.382 -56.694,56.693 0,31.311 25.383,56.693 56.694,56.693 C -25.383,56.693 0,31.311 0,0"
             style="fill:#231f20;fill-opacity:1;fill-rule:nonzero;stroke:none"
             id="path10737" /></g><g
           id="g10739"
           transform="translate(3886.2026,1100.2788)"><path
             d="m 0,0 c 0,-31.311 -25.383,-56.693 -56.693,-56.693 -31.311,0 -56.694,25.382 -56.694,56.693 0,31.311 25.383,56.693 56.694,56.693 C -25.383,56.693 0,31.311 0,0 Z"
             style="fill:none;stroke:#231f20;stroke-width:10;stroke-linecap:butt;stroke-linejoin:miter;stroke-miterlimit:10;stroke-dasharray:none;stroke-opacity:1"
             id="path10741" /></g><g
           id="g10743"
           transform="translate(4169.5327,958.7969)"><path
             d="m 0,0 c 0,-31.311 -25.383,-56.693 -56.693,-56.693 -31.311,0 -56.694,25.382 -56.694,56.693 0,31.311 25.383,56.693 56.694,56.693 C -25.383,56.693 0,31.311 0,0"
             style="fill:#ed1c24;fill-opacity:1;fill-rule:nonzero;stroke:none"
             id="path10745" /></g><g
           id="g10747"
           transform="translate(4169.5327,958.7969)"><path
             d="m 0,0 c 0,-31.311 -25.383,-56.693 -56.693,-56.693 -31.311,0 -56.694,25.382 -56.694,56.693 0,31.311 25.383,56.693 56.694,56.693 C -25.383,56.693 0,31.311 0,0 Z"
             style="fill:none;stroke:#231f20;stroke-width:1;stroke-linecap:butt;stroke-linejoin:miter;stroke-miterlimit:10;stroke-dasharray:none;stroke-opacity:1"
             id="path10749" /></g><g
           id="g10751"
           transform="translate(4192.8921,392.8711)"><path
             d="m 0,0 c 0,-31.311 -25.383,-56.693 -56.693,-56.693 -31.311,0 -56.694,25.382 -56.694,56.693 0,31.311 25.383,56.693 56.694,56.693 C -25.383,56.693 0,31.311 0,0"
             style="fill:#231f20;fill-opacity:1;fill-rule:nonzero;stroke:none"
             id="path10753" /></g><g
           id="g10755"
           transform="translate(4192.8921,392.8711)"><path
             d="m 0,0 c 0,-31.311 -25.383,-56.693 -56.693,-56.693 -31.311,0 -56.694,25.382 -56.694,56.693 0,31.311 25.383,56.693 56.694,56.693 C -25.383,56.693 0,31.311 0,0 Z"
             style="fill:none;stroke:#231f20;stroke-width:10;stroke-linecap:butt;stroke-linejoin:miter;stroke-miterlimit:10;stroke-dasharray:none;stroke-opacity:1"
             id="path10757" /></g><g
           id="g10759"
           transform="translate(4169.5327,1100.2778)"><path
             d="m 0,0 c 0,-31.311 -25.383,-56.693 -56.693,-56.693 -31.311,0 -56.694,25.382 -56.694,56.693 0,31.311 25.383,56.693 56.694,56.693 C -25.383,56.693 0,31.311 0,0"
             style="fill:#231f20;fill-opacity:1;fill-rule:nonzero;stroke:none"
             id="path10761" /></g><g
           id="g10763"
           transform="translate(4169.5327,1100.2778)"><path
             d="m 0,0 c 0,-31.311 -25.383,-56.693 -56.693,-56.693 -31.311,0 -56.694,25.382 -56.694,56.693 0,31.311 25.383,56.693 56.694,56.693 C -25.383,56.693 0,31.311 0,0 Z"
             style="fill:none;stroke:#231f20;stroke-width:10;stroke-linecap:butt;stroke-linejoin:miter;stroke-miterlimit:10;stroke-dasharray:none;stroke-opacity:1"
             id="path10765" /></g><g
           id="g10767"
           transform="translate(4846.2241,392.8711)"><path
             d="m 0,0 c 0,-31.311 -25.381,-56.693 -56.691,-56.693 -31.312,0 -56.694,25.382 -56.694,56.693 0,31.311 25.382,56.693 56.694,56.693 C -25.381,56.693 0,31.311 0,0"
             style="fill:#231f20;fill-opacity:1;fill-rule:nonzero;stroke:none"
             id="path10769" /></g><g
           id="g10771"
           transform="translate(4846.2241,392.8711)"><path
             d="m 0,0 c 0,-31.311 -25.381,-56.693 -56.691,-56.693 -31.312,0 -56.694,25.382 -56.694,56.693 0,31.311 25.382,56.693 56.694,56.693 C -25.381,56.693 0,31.311 0,0 Z"
             style="fill:none;stroke:#231f20;stroke-width:10;stroke-linecap:butt;stroke-linejoin:miter;stroke-miterlimit:10;stroke-dasharray:none;stroke-opacity:1"
             id="path10773" /></g><g
           id="g10775"
           transform="translate(4516.1968,534.3516)"><path
             d="m 0,0 c 0,-31.311 -25.381,-56.693 -56.691,-56.693 -31.312,0 -56.694,25.382 -56.694,56.693 0,31.311 25.382,56.693 56.694,56.693 C -25.381,56.693 0,31.311 0,0"
             style="fill:#231f20;fill-opacity:1;fill-rule:nonzero;stroke:none"
             id="path10777" /></g><g
           id="g10779"
           transform="translate(4516.1968,534.3516)"><path
             d="m 0,0 c 0,-31.311 -25.381,-56.693 -56.691,-56.693 -31.312,0 -56.694,25.382 -56.694,56.693 0,31.311 25.382,56.693 56.694,56.693 C -25.381,56.693 0,31.311 0,0 Z"
             style="fill:none;stroke:#231f20;stroke-width:10;stroke-linecap:butt;stroke-linejoin:miter;stroke-miterlimit:10;stroke-dasharray:none;stroke-opacity:1"
             id="path10781" /></g><g
           id="g10783"
           transform="translate(4846.2241,552.7549)"><path
             d="m 0,0 c 0,-31.311 -25.381,-56.693 -56.691,-56.693 -31.312,0 -56.694,25.382 -56.694,56.693 0,31.311 25.382,56.693 56.694,56.693 C -25.381,56.693 0,31.311 0,0"
             style="fill:#ed1c24;fill-opacity:1;fill-rule:nonzero;stroke:none"
             id="path10785" /></g><g
           id="g10787"
           transform="translate(4846.2241,552.7549)"><path
             d="m 0,0 c 0,-31.311 -25.381,-56.693 -56.691,-56.693 -31.312,0 -56.694,25.382 -56.694,56.693 0,31.311 25.382,56.693 56.694,56.693 C -25.381,56.693 0,31.311 0,0 Z"
             style="fill:none;stroke:#231f20;stroke-width:1;stroke-linecap:butt;stroke-linejoin:miter;stroke-miterlimit:10;stroke-dasharray:none;stroke-opacity:1"
             id="path10789" /></g><g
           id="g10791"
           transform="translate(4516.1968,675.834)"><path
             d="m 0,0 c 0,-31.311 -25.381,-56.693 -56.691,-56.693 -31.312,0 -56.694,25.382 -56.694,56.693 0,31.311 25.382,56.693 56.694,56.693 C -25.381,56.693 0,31.311 0,0"
             style="fill:#231f20;fill-opacity:1;fill-rule:nonzero;stroke:none"
             id="path10793" /></g><g
           id="g10795"
           transform="translate(4516.1968,675.834)"><path
             d="m 0,0 c 0,-31.311 -25.381,-56.693 -56.691,-56.693 -31.312,0 -56.694,25.382 -56.694,56.693 0,31.311 25.382,56.693 56.694,56.693 C -25.381,56.693 0,31.311 0,0 Z"
             style="fill:none;stroke:#231f20;stroke-width:10;stroke-linecap:butt;stroke-linejoin:miter;stroke-miterlimit:10;stroke-dasharray:none;stroke-opacity:1"
             id="path10797" /></g><g
           id="g10799"
           transform="translate(4846.2241,675.834)"><path
             d="m 0,0 c 0,-31.311 -25.381,-56.693 -56.691,-56.693 -31.312,0 -56.694,25.382 -56.694,56.693 0,31.311 25.382,56.693 56.694,56.693 C -25.381,56.693 0,31.311 0,0"
             style="fill:#231f20;fill-opacity:1;fill-rule:nonzero;stroke:none"
             id="path10801" /></g><g
           id="g10803"
           transform="translate(4846.2241,675.834)"><path
             d="m 0,0 c 0,-31.311 -25.381,-56.693 -56.691,-56.693 -31.312,0 -56.694,25.382 -56.694,56.693 0,31.311 25.382,56.693 56.694,56.693 C -25.381,56.693 0,31.311 0,0 Z"
             style="fill:none;stroke:#231f20;stroke-width:10;stroke-linecap:butt;stroke-linejoin:miter;stroke-miterlimit:10;stroke-dasharray:none;stroke-opacity:1"
             id="path10805" /></g><g
           id="g10807"
           transform="translate(4516.1968,817.3154)"><path
             d="m 0,0 c 0,-31.311 -25.381,-56.693 -56.691,-56.693 -31.312,0 -56.694,25.382 -56.694,56.693 0,31.311 25.382,56.693 56.694,56.693 C -25.381,56.693 0,31.311 0,0"
             style="fill:#231f20;fill-opacity:1;fill-rule:nonzero;stroke:none"
             id="path10809" /></g><g
           id="g10811"
           transform="translate(4516.1968,817.3154)"><path
             d="m 0,0 c 0,-31.311 -25.381,-56.693 -56.691,-56.693 -31.312,0 -56.694,25.382 -56.694,56.693 0,31.311 25.382,56.693 56.694,56.693 C -25.381,56.693 0,31.311 0,0 Z"
             style="fill:none;stroke:#231f20;stroke-width:10;stroke-linecap:butt;stroke-linejoin:miter;stroke-miterlimit:10;stroke-dasharray:none;stroke-opacity:1"
             id="path10813" /></g><g
           id="g10815"
           transform="translate(4829.5581,958.7969)"><path
             d="m 0,0 c 0,-31.311 -25.381,-56.693 -56.691,-56.693 -31.313,0 -56.694,25.382 -56.694,56.693 0,31.311 25.381,56.693 56.694,56.693 C -25.381,56.693 0,31.311 0,0"
             style="fill:#231f20;fill-opacity:1;fill-rule:nonzero;stroke:none"
             id="path10817" /></g><g
           id="g10819"
           transform="translate(4829.5581,958.7969)"><path
             d="m 0,0 c 0,-31.311 -25.381,-56.693 -56.691,-56.693 -31.313,0 -56.694,25.382 -56.694,56.693 0,31.311 25.381,56.693 56.694,56.693 C -25.381,56.693 0,31.311 0,0 Z"
             style="fill:none;stroke:#231f20;stroke-width:10;stroke-linecap:butt;stroke-linejoin:miter;stroke-miterlimit:10;stroke-dasharray:none;stroke-opacity:1"
             id="path10821" /></g><g
           id="g10823"
           transform="translate(4829.5581,1100.2778)"><path
             d="m 0,0 c 0,-31.311 -25.381,-56.693 -56.691,-56.693 -31.313,0 -56.694,25.382 -56.694,56.693 0,31.311 25.381,56.693 56.694,56.693 C -25.381,56.693 0,31.311 0,0"
             style="fill:#231f20;fill-opacity:1;fill-rule:nonzero;stroke:none"
             id="path10825" /></g><g
           id="g10827"
           transform="translate(4829.5581,1100.2778)"><path
             d="m 0,0 c 0,-31.311 -25.381,-56.693 -56.691,-56.693 -31.313,0 -56.694,25.382 -56.694,56.693 0,31.311 25.381,56.693 56.694,56.693 C -25.381,56.693 0,31.311 0,0 Z"
             style="fill:none;stroke:#231f20;stroke-width:10;stroke-linecap:butt;stroke-linejoin:miter;stroke-miterlimit:10;stroke-dasharray:none;stroke-opacity:1"
             id="path10829" /></g></g></g></g></svg>
