<?xml version="1.0" encoding="UTF-8" standalone="no"?>
<svg
   xmlns:dc="http://purl.org/dc/elements/1.1/"
   xmlns:cc="http://creativecommons.org/ns#"
   xmlns:rdf="http://www.w3.org/1999/02/22-rdf-syntax-ns#"
   xmlns:svg="http://www.w3.org/2000/svg"
   xmlns="http://www.w3.org/2000/svg"
   version="1.1"
   id="svg11392"
   xml:space="preserve"
   width="7218.9067"
   height="1625.2"
   viewBox="0 0 7218.9067 1625.2"><metadata
     id="metadata11398"><rdf:RDF><cc:Work
         rdf:about=""><dc:format>image/svg+xml</dc:format><dc:type
           rdf:resource="http://purl.org/dc/dcmitype/StillImage" /><dc:title></dc:title></cc:Work></rdf:RDF></metadata><defs
     id="defs11396"><clipPath
       clipPathUnits="userSpaceOnUse"
       id="clipPath11528"><path
         d="M 0,1218.896 H 5414.177 V 0 H 0 Z"
         id="path11526" /></clipPath></defs><g
     id="g11400"
     transform="matrix(1.3333333,0,0,-1.3333333,0,1625.2)"><g
       id="g11402"
       transform="translate(118.2464,1100.2786)"><path
         d="M 0,0 H 5125.927 Z"
         style="fill:#231f20;fill-opacity:1;fill-rule:nonzero;stroke:none"
         id="path11404" /></g><g
       id="g11406"
       transform="translate(118.2471,1100.2783)"><path
         d="M 0,0 H 5125.926"
         style="fill:none;stroke:#231f20;stroke-width:1;stroke-linecap:butt;stroke-linejoin:miter;stroke-miterlimit:10;stroke-dasharray:none;stroke-opacity:1"
         id="path11408" /></g><g
       id="g11410"
       transform="translate(118.2464,534.3523)"><path
         d="M 0,0 H 5125.927 Z"
         style="fill:#231f20;fill-opacity:1;fill-rule:nonzero;stroke:none"
         id="path11412" /></g><g
       id="g11414"
       transform="translate(118.2471,534.3525)"><path
         d="M 0,0 H 5125.926"
         style="fill:none;stroke:#231f20;stroke-width:1;stroke-linecap:butt;stroke-linejoin:miter;stroke-miterlimit:10;stroke-dasharray:none;stroke-opacity:1"
         id="path11416" /></g><g
       id="g11418"
       transform="translate(118.2464,392.8708)"><path
         d="M 0,0 H 5125.925 Z"
         style="fill:#231f20;fill-opacity:1;fill-rule:nonzero;stroke:none"
         id="path11420" /></g><g
       id="g11422"
       transform="translate(118.2471,392.8711)"><path
         d="M 0,0 H 5125.925"
         style="fill:none;stroke:#231f20;stroke-width:1;stroke-linecap:butt;stroke-linejoin:miter;stroke-miterlimit:10;stroke-dasharray:none;stroke-opacity:1"
         id="path11424" /></g><g
       id="g11426"
       transform="translate(118.2464,675.8339)"><path
         d="M 0,0 H 5125.925 Z"
         style="fill:#231f20;fill-opacity:1;fill-rule:nonzero;stroke:none"
         id="path11428" /></g><g
       id="g11430"
       transform="translate(118.2461,675.834)"><path
         d="M 0,0 H 5125.926"
         style="fill:none;stroke:#231f20;stroke-width:1;stroke-linecap:butt;stroke-linejoin:miter;stroke-miterlimit:10;stroke-dasharray:none;stroke-opacity:1"
         id="path11432" /></g><g
       id="g11434"
       transform="translate(118.2464,958.7971)"><path
         d="M 0,0 H 5125.928 Z"
         style="fill:#231f20;fill-opacity:1;fill-rule:nonzero;stroke:none"
         id="path11436" /></g><g
       id="g11438"
       transform="translate(118.2471,958.7969)"><path
         d="M 0,0 H 5125.928"
         style="fill:none;stroke:#231f20;stroke-width:1;stroke-linecap:butt;stroke-linejoin:miter;stroke-miterlimit:10;stroke-dasharray:none;stroke-opacity:1"
         id="path11440" /></g><g
       id="g11442"
       transform="translate(118.2464,817.3155)"><path
         d="M 0,0 H 5125.928 Z"
         style="fill:#231f20;fill-opacity:1;fill-rule:nonzero;stroke:none"
         id="path11444" /></g><g
       id="g11446"
       transform="translate(118.2471,817.3154)"><path
         d="M 0,0 H 5125.928"
         style="fill:none;stroke:#231f20;stroke-width:1;stroke-linecap:butt;stroke-linejoin:miter;stroke-miterlimit:10;stroke-dasharray:none;stroke-opacity:1"
         id="path11448" /></g><g
       id="g11450"
       transform="translate(118.2471,1100.2783)"><path
         d="M 0,0 V -707.407"
         style="fill:none;stroke:#231f20;stroke-width:1;stroke-linecap:butt;stroke-linejoin:miter;stroke-miterlimit:10;stroke-dasharray:none;stroke-opacity:1"
         id="path11452" /></g><g
       id="g11454"
       transform="translate(4923.8042,1100.2783)"><path
         d="M 0,0 V -707.407"
         style="fill:none;stroke:#231f20;stroke-width:1;stroke-linecap:butt;stroke-linejoin:miter;stroke-miterlimit:10;stroke-dasharray:none;stroke-opacity:1"
         id="path11456" /></g><g
       id="g11458"
       transform="translate(4603.4331,1100.2783)"><path
         d="M 0,0 V -707.407"
         style="fill:none;stroke:#231f20;stroke-width:1;stroke-linecap:butt;stroke-linejoin:miter;stroke-miterlimit:10;stroke-dasharray:none;stroke-opacity:1"
         id="path11460" /></g><g
       id="g11462"
       transform="translate(4283.064,1100.2783)"><path
         d="M 0,0 V -707.407"
         style="fill:none;stroke:#231f20;stroke-width:1;stroke-linecap:butt;stroke-linejoin:miter;stroke-miterlimit:10;stroke-dasharray:none;stroke-opacity:1"
         id="path11464" /></g><g
       id="g11466"
       transform="translate(3962.6929,1100.2783)"><path
         d="M 0,0 V -707.407"
         style="fill:none;stroke:#231f20;stroke-width:1;stroke-linecap:butt;stroke-linejoin:miter;stroke-miterlimit:10;stroke-dasharray:none;stroke-opacity:1"
         id="path11468" /></g><g
       id="g11470"
       transform="translate(3642.3218,1100.2783)"><path
         d="M 0,0 V -707.407"
         style="fill:none;stroke:#231f20;stroke-width:1;stroke-linecap:butt;stroke-linejoin:miter;stroke-miterlimit:10;stroke-dasharray:none;stroke-opacity:1"
         id="path11472" /></g><g
       id="g11474"
       transform="translate(3321.9517,1100.2788)"><path
         d="M 0,0 V -707.408"
         style="fill:none;stroke:#231f20;stroke-width:1;stroke-linecap:butt;stroke-linejoin:miter;stroke-miterlimit:10;stroke-dasharray:none;stroke-opacity:1"
         id="path11476" /></g><g
       id="g11478"
       transform="translate(3001.5815,1100.2778)"><path
         d="M 0,0 V -707.407"
         style="fill:none;stroke:#231f20;stroke-width:1;stroke-linecap:butt;stroke-linejoin:miter;stroke-miterlimit:10;stroke-dasharray:none;stroke-opacity:1"
         id="path11480" /></g><g
       id="g11482"
       transform="translate(2681.2095,1100.2778)"><path
         d="M 0,0 V -707.407"
         style="fill:none;stroke:#231f20;stroke-width:1;stroke-linecap:butt;stroke-linejoin:miter;stroke-miterlimit:10;stroke-dasharray:none;stroke-opacity:1"
         id="path11484" /></g><g
       id="g11486"
       transform="translate(2360.8403,1100.2778)"><path
         d="M 0,0 V -707.407"
         style="fill:none;stroke:#231f20;stroke-width:1;stroke-linecap:butt;stroke-linejoin:miter;stroke-miterlimit:10;stroke-dasharray:none;stroke-opacity:1"
         id="path11488" /></g><g
       id="g11490"
       transform="translate(2040.4702,1100.2783)"><path
         d="M 0,0 V -707.407"
         style="fill:none;stroke:#231f20;stroke-width:1;stroke-linecap:butt;stroke-linejoin:miter;stroke-miterlimit:10;stroke-dasharray:none;stroke-opacity:1"
         id="path11492" /></g><g
       id="g11494"
       transform="translate(1720.0996,1100.2788)"><path
         d="M 0,0 V -707.408"
         style="fill:none;stroke:#231f20;stroke-width:1;stroke-linecap:butt;stroke-linejoin:miter;stroke-miterlimit:10;stroke-dasharray:none;stroke-opacity:1"
         id="path11496" /></g><g
       id="g11498"
       transform="translate(1399.729,1100.2788)"><path
         d="M 0,0 V -707.408"
         style="fill:none;stroke:#231f20;stroke-width:1;stroke-linecap:butt;stroke-linejoin:miter;stroke-miterlimit:10;stroke-dasharray:none;stroke-opacity:1"
         id="path11500" /></g><g
       id="g11502"
       transform="translate(1079.3584,1105.834)"><path
         d="M 0,0 V -707.407"
         style="fill:none;stroke:#231f20;stroke-width:1;stroke-linecap:butt;stroke-linejoin:miter;stroke-miterlimit:10;stroke-dasharray:none;stroke-opacity:1"
         id="path11504" /></g><g
       id="g11506"
       transform="translate(758.9878,1100.2783)"><path
         d="M 0,0 V -707.407"
         style="fill:none;stroke:#231f20;stroke-width:1;stroke-linecap:butt;stroke-linejoin:miter;stroke-miterlimit:10;stroke-dasharray:none;stroke-opacity:1"
         id="path11508" /></g><g
       id="g11510"
       transform="translate(438.6177,1100.2783)"><path
         d="M 0,0 V -707.407"
         style="fill:none;stroke:#231f20;stroke-width:1;stroke-linecap:butt;stroke-linejoin:miter;stroke-miterlimit:10;stroke-dasharray:none;stroke-opacity:1"
         id="path11512" /></g><g
       id="g11514"
       transform="translate(5244.1753,1100.2783)"><path
         d="M 0,0 V -707.407"
         style="fill:none;stroke:#231f20;stroke-width:1;stroke-linecap:butt;stroke-linejoin:miter;stroke-miterlimit:10;stroke-dasharray:none;stroke-opacity:1"
         id="path11516" /></g><text
       transform="matrix(1,0,0,-1,219.5068,174.0557)"
       style="font-variant:normal;font-weight:normal;font-stretch:normal;font-size:100px;font-family:'Myriad Pro';-inkscape-font-specification:MyriadPro-Regular;writing-mode:lr-tb;fill:#231f20;fill-opacity:1;fill-rule:nonzero;stroke:none"
       id="text11520"><tspan
         x="0 332.39999 656.59998 999.90002 1316.6 1629.9 1966.6 2293.3 2600 2916.7 2968 3230 3281.3 3576.7 3628 3893.3999 3944.7 4206.7002 4258 4496.7002 4548"
         y="0"
         id="tspan11518">123456789101112131415</tspan></text><g
       id="g11522"><g
         id="g11524"
         clip-path="url(#clipPath11528)"><g
           id="g11530"
           transform="translate(2569.5332,392.8711)"><path
             d="m 0,0 c 0,-31.31 -25.382,-56.692 -56.693,-56.692 -31.311,0 -56.693,25.382 -56.693,56.692 0,31.311 25.382,56.693 56.693,56.693 C -25.382,56.693 0,31.311 0,0"
             style="fill:#ed1c24;fill-opacity:1;fill-rule:nonzero;stroke:none"
             id="path11532" /></g><g
           id="g11534"
           transform="translate(2569.5332,392.8711)"><path
             d="m 0,0 c 0,-31.31 -25.382,-56.692 -56.693,-56.692 -31.311,0 -56.693,25.382 -56.693,56.692 0,31.311 25.382,56.693 56.693,56.693 C -25.382,56.693 0,31.311 0,0 Z"
             style="fill:none;stroke:#231f20;stroke-width:1;stroke-linecap:butt;stroke-linejoin:miter;stroke-miterlimit:10;stroke-dasharray:none;stroke-opacity:1"
             id="path11536" /></g><g
           id="g11538"
           transform="translate(2259.5322,392.8711)"><path
             d="m 0,0 c 0,-31.311 -25.382,-56.693 -56.692,-56.693 -31.311,0 -56.694,25.382 -56.694,56.693 0,31.311 25.383,56.693 56.694,56.693 C -25.382,56.693 0,31.311 0,0"
             style="fill:#231f20;fill-opacity:1;fill-rule:nonzero;stroke:none"
             id="path11540" /></g><g
           id="g11542"
           transform="translate(2259.5322,392.8711)"><path
             d="m 0,0 c 0,-31.311 -25.382,-56.693 -56.692,-56.693 -31.311,0 -56.694,25.382 -56.694,56.693 0,31.311 25.383,56.693 56.694,56.693 C -25.382,56.693 0,31.311 0,0 Z"
             style="fill:none;stroke:#231f20;stroke-width:1;stroke-linecap:butt;stroke-linejoin:miter;stroke-miterlimit:10;stroke-dasharray:none;stroke-opacity:1"
             id="path11544" /></g><g
           id="g11546"
           transform="translate(2569.5327,534.3516)"><path
             d="m 0,0 c 0,-31.309 -25.382,-56.691 -56.692,-56.691 -31.311,0 -56.694,25.382 -56.694,56.691 0,31.311 25.383,56.693 56.694,56.693 C -25.382,56.693 0,31.311 0,0"
             style="fill:#231f20;fill-opacity:1;fill-rule:nonzero;stroke:none"
             id="path11548" /></g><g
           id="g11550"
           transform="translate(2569.5327,534.3516)"><path
             d="m 0,0 c 0,-31.309 -25.382,-56.691 -56.692,-56.691 -31.311,0 -56.694,25.382 -56.694,56.691 0,31.311 25.383,56.693 56.694,56.693 C -25.382,56.693 0,31.311 0,0 Z"
             style="fill:none;stroke:#231f20;stroke-width:1;stroke-linecap:butt;stroke-linejoin:miter;stroke-miterlimit:10;stroke-dasharray:none;stroke-opacity:1"
             id="path11552" /></g><g
           id="g11554"
           transform="translate(2259.5327,534.3516)"><path
             d="m 0,0 c 0,-31.309 -25.382,-56.691 -56.692,-56.691 -31.311,0 -56.694,25.382 -56.694,56.691 0,31.311 25.383,56.693 56.694,56.693 C -25.382,56.693 0,31.311 0,0"
             style="fill:#231f20;fill-opacity:1;fill-rule:nonzero;stroke:none"
             id="path11556" /></g><g
           id="g11558"
           transform="translate(2259.5327,534.3516)"><path
             d="m 0,0 c 0,-31.309 -25.382,-56.691 -56.692,-56.691 -31.311,0 -56.694,25.382 -56.694,56.691 0,31.311 25.383,56.693 56.694,56.693 C -25.382,56.693 0,31.311 0,0 Z"
             style="fill:none;stroke:#231f20;stroke-width:1;stroke-linecap:butt;stroke-linejoin:miter;stroke-miterlimit:10;stroke-dasharray:none;stroke-opacity:1"
             id="path11560" /></g><g
           id="g11562"
           transform="translate(3219.5327,398.4268)"><path
             d="m 0,0 c 0,-31.31 -25.383,-56.692 -56.693,-56.692 -31.311,0 -56.694,25.382 -56.694,56.692 0,31.311 25.383,56.693 56.694,56.693 C -25.383,56.693 0,31.311 0,0"
             style="fill:#231f20;fill-opacity:1;fill-rule:nonzero;stroke:none"
             id="path11564" /></g><g
           id="g11566"
           transform="translate(3219.5327,398.4268)"><path
             d="m 0,0 c 0,-31.31 -25.383,-56.692 -56.693,-56.692 -31.311,0 -56.694,25.382 -56.694,56.692 0,31.311 25.383,56.693 56.694,56.693 C -25.383,56.693 0,31.311 0,0 Z"
             style="fill:none;stroke:#231f20;stroke-width:1;stroke-linecap:butt;stroke-linejoin:miter;stroke-miterlimit:10;stroke-dasharray:none;stroke-opacity:1"
             id="path11568" /></g><g
           id="g11570"
           transform="translate(3219.5327,534.3516)"><path
             d="m 0,0 c 0,-31.309 -25.382,-56.691 -56.692,-56.691 -31.312,0 -56.694,25.382 -56.694,56.691 0,31.311 25.382,56.693 56.694,56.693 C -25.382,56.693 0,31.311 0,0"
             style="fill:#231f20;fill-opacity:1;fill-rule:nonzero;stroke:none"
             id="path11572" /></g><g
           id="g11574"
           transform="translate(3219.5327,534.3516)"><path
             d="m 0,0 c 0,-31.309 -25.382,-56.691 -56.692,-56.691 -31.312,0 -56.694,25.382 -56.694,56.691 0,31.311 25.382,56.693 56.694,56.693 C -25.382,56.693 0,31.311 0,0 Z"
             style="fill:none;stroke:#231f20;stroke-width:1;stroke-linecap:butt;stroke-linejoin:miter;stroke-miterlimit:10;stroke-dasharray:none;stroke-opacity:1"
             id="path11576" /></g><g
           id="g11578"
           transform="translate(3219.5327,675.8335)"><path
             d="m 0,0 c 0,-31.31 -25.382,-56.692 -56.692,-56.692 -31.312,0 -56.694,25.382 -56.694,56.692 0,31.311 25.382,56.693 56.694,56.693 C -25.382,56.693 0,31.311 0,0"
             style="fill:#ed1c24;fill-opacity:1;fill-rule:nonzero;stroke:none"
             id="path11580" /></g><g
           id="g11582"
           transform="translate(3219.5327,675.8335)"><path
             d="m 0,0 c 0,-31.31 -25.382,-56.692 -56.692,-56.692 -31.312,0 -56.694,25.382 -56.694,56.692 0,31.311 25.382,56.693 56.694,56.693 C -25.382,56.693 0,31.311 0,0 Z"
             style="fill:none;stroke:#231f20;stroke-width:1;stroke-linecap:butt;stroke-linejoin:miter;stroke-miterlimit:10;stroke-dasharray:none;stroke-opacity:1"
             id="path11584" /></g><g
           id="g11586"
           transform="translate(3219.5327,817.3149)"><path
             d="m 0,0 c 0,-31.31 -25.382,-56.692 -56.692,-56.692 -31.312,0 -56.694,25.382 -56.694,56.692 0,31.311 25.382,56.693 56.694,56.693 C -25.382,56.693 0,31.311 0,0"
             style="fill:#231f20;fill-opacity:1;fill-rule:nonzero;stroke:none"
             id="path11588" /></g><g
           id="g11590"
           transform="translate(3219.5327,817.3149)"><path
             d="m 0,0 c 0,-31.31 -25.382,-56.692 -56.692,-56.692 -31.312,0 -56.694,25.382 -56.694,56.692 0,31.311 25.382,56.693 56.694,56.693 C -25.382,56.693 0,31.311 0,0 Z"
             style="fill:none;stroke:#231f20;stroke-width:1;stroke-linecap:butt;stroke-linejoin:miter;stroke-miterlimit:10;stroke-dasharray:none;stroke-opacity:1"
             id="path11592" /></g><g
           id="g11594"
           transform="translate(3219.5327,958.7964)"><path
             d="m 0,0 c 0,-31.31 -25.382,-56.692 -56.692,-56.692 -31.312,0 -56.694,25.382 -56.694,56.692 0,31.311 25.382,56.693 56.694,56.693 C -25.382,56.693 0,31.311 0,0"
             style="fill:#231f20;fill-opacity:1;fill-rule:nonzero;stroke:none"
             id="path11596" /></g><g
           id="g11598"
           transform="translate(3219.5327,958.7964)"><path
             d="m 0,0 c 0,-31.31 -25.382,-56.692 -56.692,-56.692 -31.312,0 -56.694,25.382 -56.694,56.692 0,31.311 25.382,56.693 56.694,56.693 C -25.382,56.693 0,31.311 0,0 Z"
             style="fill:none;stroke:#231f20;stroke-width:1;stroke-linecap:butt;stroke-linejoin:miter;stroke-miterlimit:10;stroke-dasharray:none;stroke-opacity:1"
             id="path11600" /></g><g
           id="g11602"
           transform="translate(2259.5327,675.8335)"><path
             d="m 0,0 c 0,-31.31 -25.382,-56.692 -56.692,-56.692 -31.311,0 -56.694,25.382 -56.694,56.692 0,31.311 25.383,56.693 56.694,56.693 C -25.382,56.693 0,31.311 0,0"
             style="fill:#231f20;fill-opacity:1;fill-rule:nonzero;stroke:none"
             id="path11604" /></g><g
           id="g11606"
           transform="translate(2259.5327,675.8335)"><path
             d="m 0,0 c 0,-31.31 -25.382,-56.692 -56.692,-56.692 -31.311,0 -56.694,25.382 -56.694,56.692 0,31.311 25.383,56.693 56.694,56.693 C -25.382,56.693 0,31.311 0,0 Z"
             style="fill:none;stroke:#231f20;stroke-width:1;stroke-linecap:butt;stroke-linejoin:miter;stroke-miterlimit:10;stroke-dasharray:none;stroke-opacity:1"
             id="path11608" /></g><g
           id="g11610"
           transform="translate(2932.8931,675.8335)"><path
             d="m 0,0 c 0,-31.31 -25.382,-56.692 -56.692,-56.692 -31.311,0 -56.694,25.382 -56.694,56.692 0,31.311 25.383,56.693 56.694,56.693 C -25.382,56.693 0,31.311 0,0"
             style="fill:#231f20;fill-opacity:1;fill-rule:nonzero;stroke:none"
             id="path11612" /></g><g
           id="g11614"
           transform="translate(2932.8931,675.8335)"><path
             d="m 0,0 c 0,-31.31 -25.382,-56.692 -56.692,-56.692 -31.311,0 -56.694,25.382 -56.694,56.692 0,31.311 25.383,56.693 56.694,56.693 C -25.382,56.693 0,31.311 0,0 Z"
             style="fill:none;stroke:#231f20;stroke-width:1;stroke-linecap:butt;stroke-linejoin:miter;stroke-miterlimit:10;stroke-dasharray:none;stroke-opacity:1"
             id="path11616" /></g><g
           id="g11618"
           transform="translate(2932.8931,817.3149)"><path
             d="m 0,0 c 0,-31.31 -25.382,-56.692 -56.692,-56.692 -31.311,0 -56.694,25.382 -56.694,56.692 0,31.311 25.383,56.693 56.694,56.693 C -25.382,56.693 0,31.311 0,0"
             style="fill:#231f20;fill-opacity:1;fill-rule:nonzero;stroke:none"
             id="path11620" /></g><g
           id="g11622"
           transform="translate(2932.8931,817.3149)"><path
             d="m 0,0 c 0,-31.31 -25.382,-56.692 -56.692,-56.692 -31.311,0 -56.694,25.382 -56.694,56.692 0,31.311 25.383,56.693 56.694,56.693 C -25.382,56.693 0,31.311 0,0 Z"
             style="fill:none;stroke:#231f20;stroke-width:1;stroke-linecap:butt;stroke-linejoin:miter;stroke-miterlimit:10;stroke-dasharray:none;stroke-opacity:1"
             id="path11624" /></g><g
           id="g11626"
           transform="translate(2569.5332,958.7964)"><path
             d="m 0,0 c 0,-31.31 -25.382,-56.692 -56.692,-56.692 -31.311,0 -56.694,25.382 -56.694,56.692 0,31.311 25.383,56.693 56.694,56.693 C -25.382,56.693 0,31.311 0,0"
             style="fill:#231f20;fill-opacity:1;fill-rule:nonzero;stroke:none"
             id="path11628" /></g><g
           id="g11630"
           transform="translate(2569.5332,958.7964)"><path
             d="m 0,0 c 0,-31.31 -25.382,-56.692 -56.692,-56.692 -31.311,0 -56.694,25.382 -56.694,56.692 0,31.311 25.383,56.693 56.694,56.693 C -25.382,56.693 0,31.311 0,0 Z"
             style="fill:none;stroke:#231f20;stroke-width:1;stroke-linecap:butt;stroke-linejoin:miter;stroke-miterlimit:10;stroke-dasharray:none;stroke-opacity:1"
             id="path11632" /></g><g
           id="g11634"
           transform="translate(2259.5332,1100.2773)"><path
             d="m 0,0 c 0,-31.31 -25.382,-56.692 -56.692,-56.692 -31.311,0 -56.694,25.382 -56.694,56.692 0,31.311 25.383,56.693 56.694,56.693 C -25.382,56.693 0,31.311 0,0"
             style="fill:#231f20;fill-opacity:1;fill-rule:nonzero;stroke:none"
             id="path11636" /></g><g
           id="g11638"
           transform="translate(2259.5332,1100.2773)"><path
             d="m 0,0 c 0,-31.31 -25.382,-56.692 -56.692,-56.692 -31.311,0 -56.694,25.382 -56.694,56.692 0,31.311 25.383,56.693 56.694,56.693 C -25.382,56.693 0,31.311 0,0 Z"
             style="fill:none;stroke:#231f20;stroke-width:1;stroke-linecap:butt;stroke-linejoin:miter;stroke-miterlimit:10;stroke-dasharray:none;stroke-opacity:1"
             id="path11640" /></g><g
           id="g11642"
           transform="translate(2569.5327,1105.8335)"><path
             d="m 0,0 c 0,-31.31 -25.382,-56.692 -56.692,-56.692 -31.311,0 -56.694,25.382 -56.694,56.692 0,31.311 25.383,56.693 56.694,56.693 C -25.382,56.693 0,31.311 0,0"
             style="fill:#ed1c24;fill-opacity:1;fill-rule:nonzero;stroke:none"
             id="path11644" /></g><g
           id="g11646"
           transform="translate(2569.5327,1105.8335)"><path
             d="m 0,0 c 0,-31.31 -25.382,-56.692 -56.692,-56.692 -31.311,0 -56.694,25.382 -56.694,56.692 0,31.311 25.383,56.693 56.694,56.693 C -25.382,56.693 0,31.311 0,0 Z"
             style="fill:none;stroke:#231f20;stroke-width:1;stroke-linecap:butt;stroke-linejoin:miter;stroke-miterlimit:10;stroke-dasharray:none;stroke-opacity:1"
             id="path11648" /></g><g
           id="g11650"
           transform="translate(3219.5327,1100.2773)"><path
             d="m 0,0 c 0,-31.31 -25.382,-56.692 -56.692,-56.692 -31.312,0 -56.694,25.382 -56.694,56.692 0,31.311 25.382,56.693 56.694,56.693 C -25.382,56.693 0,31.311 0,0"
             style="fill:#231f20;fill-opacity:1;fill-rule:nonzero;stroke:none"
             id="path11652" /></g><g
           id="g11654"
           transform="translate(3219.5327,1100.2773)"><path
             d="m 0,0 c 0,-31.31 -25.382,-56.692 -56.692,-56.692 -31.312,0 -56.694,25.382 -56.694,56.692 0,31.311 25.382,56.693 56.694,56.693 C -25.382,56.693 0,31.311 0,0 Z"
             style="fill:none;stroke:#231f20;stroke-width:1;stroke-linecap:butt;stroke-linejoin:miter;stroke-miterlimit:10;stroke-dasharray:none;stroke-opacity:1"
             id="path11656" /></g><g
           id="g11658"
           transform="translate(2259.5327,817.3145)"><path
             d="m 0,0 c 0,-31.309 -25.382,-56.691 -56.692,-56.691 -31.311,0 -56.694,25.382 -56.694,56.691 0,31.311 25.383,56.693 56.694,56.693 C -25.382,56.693 0,31.311 0,0"
             style="fill:#231f20;fill-opacity:1;fill-rule:nonzero;stroke:none"
             id="path11660" /></g><g
           id="g11662"
           transform="translate(2259.5327,817.3145)"><path
             d="m 0,0 c 0,-31.309 -25.382,-56.691 -56.692,-56.691 -31.311,0 -56.694,25.382 -56.694,56.691 0,31.311 25.383,56.693 56.694,56.693 C -25.382,56.693 0,31.311 0,0 Z"
             style="fill:none;stroke:#231f20;stroke-width:1;stroke-linecap:butt;stroke-linejoin:miter;stroke-miterlimit:10;stroke-dasharray:none;stroke-opacity:1"
             id="path11664" /></g></g></g><text
       xml:space="preserve"
       style="font-style:normal;font-weight:normal;font-size:130px;line-height:1.25;font-family:sans-serif;letter-spacing:0px;word-spacing:0px;fill:#000000;fill-opacity:1;stroke:none;stroke-width:0.75"
       x="2157.428"
       y="-1350.9963"
       id="text12229"
       transform="scale(1,-1)"><tspan
         id="tspan12227"
         x="2157.428"
         y="-1350.9963"
         style="font-style:normal;font-variant:normal;font-weight:bold;font-stretch:normal;font-size:130px;font-family:sans-serif;-inkscape-font-specification:'sans-serif Bold';stroke-width:0.75">1</tspan></text><text
       xml:space="preserve"
       style="font-style:normal;font-weight:normal;font-size:130px;line-height:1.25;font-family:sans-serif;letter-spacing:0px;word-spacing:0px;fill:#000000;fill-opacity:1;stroke:none;stroke-width:0.75"
       x="2466.8545"
       y="-1350.2029"
       id="text12229-7"
       transform="scale(1,-1)"><tspan
         id="tspan12227-1"
         x="2466.8545"
         y="-1350.2029"
         style="font-style:normal;font-variant:normal;font-weight:bold;font-stretch:normal;font-size:130px;font-family:sans-serif;-inkscape-font-specification:'sans-serif Bold';stroke-width:0.75">2</tspan></text><text
       xml:space="preserve"
       style="font-style:normal;font-weight:normal;font-size:130px;line-height:1.25;font-family:sans-serif;letter-spacing:0px;word-spacing:0px;fill:#000000;fill-opacity:1;stroke:none;stroke-width:0.75"
       x="2785.1042"
       y="-1351.1233"
       id="text12229-1"
       transform="scale(1,-1)"><tspan
         id="tspan12227-4"
         x="2785.1042"
         y="-1351.1233"
         style="font-style:normal;font-variant:normal;font-weight:bold;font-stretch:normal;font-size:130px;font-family:sans-serif;-inkscape-font-specification:'sans-serif Bold';stroke-width:0.75">3</tspan></text><text
       xml:space="preserve"
       style="font-style:normal;font-weight:normal;font-size:130px;line-height:1.25;font-family:sans-serif;letter-spacing:0px;word-spacing:0px;fill:#000000;fill-opacity:1;stroke:none;stroke-width:0.75"
       x="3104.4331"
       y="-1351.2502"
       id="text12229-9"
       transform="scale(1,-1)"><tspan
         id="tspan12227-9"
         x="3104.4331"
         y="-1351.2502"
         style="font-style:normal;font-variant:normal;font-weight:bold;font-stretch:normal;font-size:130px;font-family:sans-serif;-inkscape-font-specification:'sans-serif Bold';stroke-width:0.75">4</tspan></text></g></svg>
